<?xml version="1.0" standalone="no"?>
<!DOCTYPE svg PUBLIC "-//W3C//DTD SVG 1.1//EN" "http://www.w3.org/Graphics/SVG/1.1/DTD/svg11.dtd" >
<svg xmlns="http://www.w3.org/2000/svg">
<metadata></metadata>
<defs>
<font id="blackmedium" horiz-adv-x="272" >
<font-face units-per-em="2048" ascent="1630" descent="-418" />
<missing-glyph horiz-adv-x="1024" />
<glyph horiz-adv-x="2048" />
<glyph horiz-adv-x="2048" />
<glyph unicode="&#xd;" horiz-adv-x="2048" />
<glyph unicode=" "  horiz-adv-x="1024" />
<glyph unicode="&#x09;" horiz-adv-x="1024" />
<glyph unicode="&#xa0;" horiz-adv-x="1024" />
<glyph unicode="!" horiz-adv-x="409" d="M0 1608q14 0 41 8q32 16 41 22q42 -13 102 -16q19 0 49 6q35 7 41 10q2 -2 4.5 -4t7 -5l7.5 -5q5 -2 14 -5.5t12 -4.5l50 -12l-35 -166l-8 67q6 25 -19 25q-5 0 -8 -12q0 -13 -4 -17v-520q0 -22 6 -37q5 -10 12 -31q4 -12 25 -47q-26 -12 -29 -49q0 -33 29 -47 q-30 -46 -33 -53q-2 -3 -4.5 -10t-7.5 -18.5t-10 -22.5q-11 -34 -29 -164q-12 -128 -47 -168q-27 38 -57 180q-26 134 -37 164q-17 50 -60 96q30 9 33 43q0 45 -41 53q21 21 27 39q1 5 2 18t2 19v33l-2 528q6 18 -13 21q-12 -9 -20 -17l-12 -79zM96 31v188q9 0 27 10 q17 9 20 29q28 -25 64 -25q26 0 57 25q6 -18 25 -31q18 -6 39 -6v-194q-25 0 -37 -4q-13 -6 -21 -23q-30 18 -59 18q-36 0 -66 -18q0 12 -16 23q-9 5 -33 8z" />
<glyph unicode="&#x26;" horiz-adv-x="833" d="M-4 754q0 16 2 28q0 26 10 90q9 75 60 117q55 26 137 68l-74 327q0 20 -8 56q-6 37 -6 57q0 24 14 59q14 32 43 58q27 24 72 24q18 0 41 -10q15 -6 41 -10q21 0 39 6q20 7 30 14q37 10 68 -23.5t59 -111.5q51 -151 54 -284q0 -61 -56 -123q-59 -59 -108 -80l149 -561 q19 42 27 67q4 20 8 64q0 24 -2 47q0 37 -2 49q0 18 -10 18l-8 -8l-5 -4l-14 -76l-33 189l29 12l35 21q28 -14 71 -17q21 0 31 4q7 2 37 13q16 -20 35 -25l31 -6l-25 -193l-14 76q-9 12 -15 12q-12 -6 -18 -63q-2 -19 -5 -56.5t-5 -56.5q-14 -65 -35 -129q-17 -66 -62 -139 q6 -19 9 -35l18 -59q0 -19 18 -19q5 5 13 17l-2 78l75 -179q-23 -3 -36 -16q-14 -14 -33 -41q-38 17 -72 20q-22 0 -45 -10q-4 -1 -19 -4.5t-22 -5.5q0 12 -8 23q-4 12 -8 20q-3 9 -23 29q-51 -69 -147 -72q-68 0 -117 55q-42 54 -63 133l-132 435q-24 71 -24 131zM178 803 q0 -28 15 -49l139 -533q12 -46 57 -37q26 9 29 47q0 19 -12 31l-181 627q-26 -17 -39 -43q-2 -10 -8 -43zM311 1479l74 -324q24 16 37 29q17 14 20 41q0 85 -26 198q-24 112 -74 115q-7 0 -20 -8q-8 -5 -11 -25v-26z" />
<glyph unicode="'" horiz-adv-x="274" d="M0 1411v188q8 0 25 11q16 8 22 28q27 -24 64 -24q27 0 57 24q6 -17 25 -30q18 -6 38 -6v-195q0 -24 -12 -80q-9 -51 -76 -115q5 19 17 66q1 7 2 23t2 24q0 34 -10 49q-7 17 -39 25q-19 6 -31 0q-8 -2 -35 -19q0 12 -16 23q-9 5 -33 8z" />
<glyph unicode="," d="M0 31v188q10 0 25 10q16 8 22 29q28 -25 64 -25q26 0 57 25q6 -18 25 -31q18 -6 38 -6v-194q0 -23 -12 -78q-9 -56 -76 -117q4 13 7 26t6 25t4 17q1 7 2 22t2 23q0 34 -10 49q-6 15 -39 24q-19 6 -31 0q-10 -3 -35 -18q0 12 -16 23q-9 5 -33 8z" />
<glyph unicode="." d="M0 31v188q9 0 27 10q17 9 20 29q28 -25 64 -25q26 0 57 25q6 -18 25 -31q18 -6 38 -6v-194q-24 0 -36 -4q-13 -6 -21 -23q-30 18 -59 18q-36 0 -66 -18q0 12 -16 23q-9 5 -33 8z" />
<glyph unicode="0" horiz-adv-x="681" d="M0 774q9 6 18 21q8 11 11 26q0 31 -29 45q17 14 27 37q6 15 10 51v516q1 1 3.5 7.5t7.5 18.5t11 26q17 41 54 75q37 29 96 41q53 -24 102 -24q45 0 97 24q35 -10 71 -24q24 -5 53 -31q23 -17 39 -49q14 -22 17 -64v-485q0 -33 2 -43q0 -13 12 -31q8 -12 21 -26 q8 -5 18 -19q-14 -7 -23 -16q-9 -6 -12 -21q-6 -40 31 -55q-25 -19 -39 -53q-12 -30 -12 -62q0 -18 2 -24v-399q0 -47 -10 -78q-7 -33 -48 -86q-37 -51 -127 -72q-6 3 -18 8t-18 8q-15 6 -45 9q-48 0 -93 -25q-70 6 -116 49q-43 40 -58 64q-12 25 -18 63v475v27q0 14 -8 45 q-15 30 -29 51zM244 174q0 -32 22 -51q21 -18 56 -21q26 0 43 17q18 15 18 43v426v67q0 33 -8 54q-4 12 -13 30q-4 9 -24 35q10 15 20 25q12 12 15 26q0 33 -35 41q23 20 31 41q9 21 12 43q0 25 2 41v484q0 24 -18 45q-18 18 -46 18q-24 0 -51 -18q-21 -15 -24 -43v-471 q0 -25 4 -41q0 -22 8 -43q4 -13 25 -54q-4 -4 -12.5 -11t-12.5 -11q-6 -6 -10 -25q0 -36 35 -47q-9 -12 -17 -20q-4 -9 -12 -29q-5 -14 -8 -51v-500z" />
<glyph unicode="1" horiz-adv-x="415" d="M0 1589l29 6q27 12 39 43q35 -9 53 -16q23 -5 69 -8q68 0 132 24l-9 -73l-6 -70l2 -489v-43q0 -25 4 -39q3 -16 13 -33q10 -13 22 -23q-32 -8 -35 -53q0 -32 35 -43q-24 -31 -33 -59q-6 -24 -6 -49v-41v-473q0 -20 19 -23q19 0 16 31l10 65q7 -42 11 -57q1 -5 2 -17 t2 -18l6 -96q-15 0 -39 -8q-24 -6 -33 -15q-8 -8 -16 -12q-17 6 -49 12q-8 1 -26.5 2t-27.5 2q-26 0 -65 -16q-6 16 -29 27q-13 6 -45 10q0 38 4 61q3 15 8 58q1 6 2 19.5t2 17.5q0 13 11 32q6 -12 12 -63q3 -45 10 -47q5 0 8 37v440v100q0 15 -6 27q-2 6 -33 45q13 3 23 16 q4 9 8 27q0 28 -31 53q8 23 17 37q6 18 12 39q4 25 6 37q1 4 2 17.5t2 19.5v463q0 14 -10 24q-9 9 -24 6q-14 -6 -17 -26l-6 -125h-31l-4 135z" />
<glyph unicode="2" horiz-adv-x="550" d="M0 1184q2 5 6.5 20l7.5 25q1 5 5 21l6 24q0 22 -7 76q-4 56 -4 57q0 76 11 119q11 39 43 65q32 25 57 31q34 8 49 16q31 -19 72 -22q51 11 84 22q68 -6 108 -49q36 -39 45 -73q6 -31 9 -84v-56q0 -227 -80 -446q-6 -18 0 -45q6 -24 6 -31q-44 0 -56 -39q-2 -12 -2 -27 q1 -2 3.5 -6t7 -11t8.5 -15q-43 -48 -72 -97q-30 -55 -51 -102q-22 -58 -39 -145q-19 -106 -22 -119v-86q-6 -21 16 -35q16 -7 53 -10q31 0 51 14q22 13 25 47v168q0 23 -2 33q0 15 -6 39l-17 33q40 6 56 28q16 19 22 72q6 46 13 68q6 -19 12 -72q6 -52 28 -68q9 -6 35 -22 q12 -6 29 -6q-11 -6 -21 -25l-6 -31v-307l6 -49q2 -4 10 -17.5t11 -19.5q-18 0 -47 -20l-27 -27q-15 10 -35 20q-17 7 -26 7q-11 0 -51 -15q-38 -12 -56 -12q-20 0 -57 12q-37 13 -53 13q-6 0 -27 -7l-39 -18q-11 13 -33 23q-6 2 -30 8v153q0 73 18 172q17 105 43 191 q21 69 49 127q25 48 25 67q0 33 -2 45q15 0 35 13q13 10 16 35q0 18 -10 30q-15 20 -21 29q29 29 43 78q4 12 9.5 29.5t9 30t6.5 22.5q9 31 18 90q6 55 15 94v246q0 55 -47 55q-19 0 -31 -12q-14 -14 -27 -35v-250l10 -29l9 -26q-38 -12 -62 -39q-18 -24 -24 -72 q0 -44 -13 -67q-6 15 -12 67q-3 49 -25 68q-18 18 -34 26q-12 6 -27 15z" />
<glyph unicode="3" horiz-adv-x="550" d="M0 453q24 0 39 10q16 9 35 26q17 17 20 56v35q0 32 10 55q12 -21 15 -74q3 -50 28 -72q15 -10 29 -18q22 -7 35 -16l-18 -33l-11 -29v-215q-3 -12 6 -39q9 -24 39 -24q17 0 35 18q10 15 10 41v516q0 13 2 27q0 31 -18 37q-4 2 -9.5 3.5t-13 3.5t-12.5 3t-15.5 2t-15.5 2 l-36 -4l-17 -12q-6 25 -20 39q-9 9 -31 20q-4 1 -13 4.5t-14 5.5q2 1 5.5 2t10 3t13.5 5q18 6 33 27q12 18 12 35l29 -14q45 0 57 4q19 7 35 22q18 18 18 45v549q0 49 -47 49q-22 0 -35 -16q-11 -14 -8 -41v-248l6 -29l13 -16q-38 -6 -64 -35q-20 -23 -26 -80 q-3 -50 -11 -69q-7 61 -14 92q-6 33 -33 57q-26 23 -53 31l12 18l2 27v266q0 58 35 86q32 25 62 35q28 7 53 12q41 -17 88 -20q43 0 90 20q40 0 64 -8q23 -6 63 -43q38 -32 41 -106v-525q-6 -22 -18 -41q-15 -20 -29 -38q-20 -27 -66 -52q42 -14 66 -49q20 -25 35 -55 q12 -24 12 -53v-406v-57q0 -55 -8 -86q-6 -30 -45 -72q-35 -35 -101 -47q-26 8 -43 12q-4 1 -8.5 1.5t-12 1t-13.5 1.5q-52 0 -91 -16q-61 6 -96 41q-32 35 -45 61q-4 11 -16 68v231q0 9 -4 17q-1 2 -3.5 6t-3.5 6z" />
<glyph unicode="4" horiz-adv-x="634" d="M0 487q30 87 45 158q11 65 14 141q31 9 31 43q0 19 -4 29q-3 12 -18 21q32 41 82 247q20 82 44 185.5t25 107.5q18 86 21 115q0 58 -2 78q26 0 38 2q17 3 29 12q14 7 19 12q6 -2 18.5 -5t19.5 -5q5 -1 18 -2t19 -2q38 0 54 4q34 4 51 10q-20 -23 -25 -39l-8 -38v-588v-51 q0 -19 25 -50q-26 -12 -29 -47q0 -33 29 -47q-12 -3 -17 -16l-8 -27v-186l31 -6q20 0 37 10q0 -28 8 -47q14 -18 26 -25q12 -6 21 -12q-24 -12 -43 -37l-23 -37h-57v-241q-9 -18 12 -21q7 0 13 21l12 61l27 -180q-23 0 -43 -10q-21 -17 -31 -25q-43 18 -80 18q-35 0 -82 -18 q-13 23 -35 31q-12 4 -49 4l35 192l14 -82q0 -13 15 -16q11 0 14 18v248h-217q0 34 -23 60q-21 24 -53 32zM137 543h156v669z" />
<glyph unicode="5" horiz-adv-x="518" d="M0 455q36 14 66 55q12 19 18 51q6 31 12 76q11 -65 17 -92q6 -30 24 -51q22 -18 35 -27q18 -7 25 -12l-9 -21l-6 -18v-246q0 -24 15 -45q16 -19 41 -19q18 0 32 17q13 16 13 37q0 10 -4 18v582q0 30 -27 51q-22 17 -43 20q-31 0 -59 -22q-28 -21 -64 -57q-7 14 -10 18 q-3 9 -21 18q-14 7 -32 7v731l-7 55q0 17 -10 35q-6 18 -6 22q1 -1 53 -16q30 -6 60 -6q23 0 59 10q37 12 55 12q25 0 68 -12q16 -3 33 -6t20 -4q13 0 29 8q3 2 12.5 6.5t16.5 7.5q3 -15 18 -24q10 -5 45 -8l-16 -27l-7 -18v-318q0 -12 3 -24q5 -20 8 -29q6 -15 6 -31 q-22 0 -33 -14q-15 -20 -20 -25q-9 -13 -15 -53q0 -39 -12 -63q-2 5 -16 61q-6 48 -21 63q-16 20 -53 43l10 27l6 31v180q-3 29 -26 43q-16 13 -54 16q-51 0 -63 -55v-465q56 30 119 33q79 0 137 -49q55 -49 55 -131v-631q0 -35 -10 -55q-5 -21 -37 -64q-26 -36 -86 -51 q-1 1 -37 16q-21 7 -41 7q-44 0 -80 -23q-32 0 -57 14q-22 11 -53 39q-21 21 -35 49q-6 20 -18 80v242q0 5 -9 20z" />
<glyph unicode="6" horiz-adv-x="628" d="M0 774q9 6 18 21q8 11 11 26q0 31 -29 45q17 14 27 37q6 15 10 51v516q1 1 3.5 7.5t7.5 18.5t11 26q17 41 54 75q37 29 96 41q53 -24 102 -24q45 0 97 24q52 -14 71 -22q26 -6 60 -43q29 -33 32 -107v-198l4 -35l13 -27q-32 -16 -49 -41q-17 -19 -29 -80q-8 -52 -18 -71 q-6 25 -15 73q-3 48 -31 76q-25 28 -59 39l10 35l2 37v196q0 27 -24 48q-20 17 -56 20q-26 0 -53 -18q-19 -13 -22 -43v-607q8 4 34 18t44 23q44 18 98 21q50 0 102 -41q54 -37 60 -100q6 -59 6 -156v-399q0 -47 -10 -78q-7 -33 -48 -86q-37 -51 -127 -72q-6 3 -18 8t-18 8 q-15 6 -45 9q-48 0 -93 -25q-70 6 -116 49q-43 40 -58 64q-12 25 -18 63v475v27q0 14 -8 45q-15 30 -29 51zM244 174q0 -32 22 -51q21 -18 56 -21q26 0 43 17q18 15 18 43v536l4 23q0 27 -14 49q-12 20 -47 23q-36 0 -60 -37q-19 -31 -22 -82v-500z" />
<glyph unicode="7" horiz-adv-x="598" d="M0 1176q9 12 12 18q1 2 8 23l9 28v291l-11 27l-18 26q27 6 43 19q13 8 29 30q14 -10 34 -26q12 -6 31 -6q112 22 158 32q34 0 80 -14q50 -12 63 -12q16 0 31 6q19 8 39 20q0 -17 14 -28q12 -7 35 -4l-82 -605q0 -43 -2 -55q0 -18 2 -26q0 -7 8 -23q7 -14 9 -20 q-38 -6 -41 -52q0 -28 24 -43l-24 -47l-25 -45l-70 -538q0 -11 6 -23q6 0 15 6q6 9 6 17l25 67l-7 -186l-36 -10l-56 -23q-46 14 -51 16q-21 7 -43 7q-56 0 -109 -23q-15 12 -30 27q-22 10 -58 10l72 186l8 -84q7 -12 15 -16q6 0 18 6q9 9 2 25l94 532l-4 45q-11 38 -16 47 q16 0 31 15q11 11 14 32q0 37 -29 52q22 25 33 47q3 6 8 17t8 17l11 33l65 363q3 21 6 39q1 4 2 12.5t2 11.5q0 27 -16 43q-14 14 -59 17h-23q-56 0 -80 -52l4 -163q3 -44 11 -60q6 -15 22 -26q-22 -18 -33 -25q-15 -9 -30 -27q-11 -13 -23 -67q-9 -51 -20 -70q-8 24 -13 66 q-3 49 -28 77q-22 31 -70 46z" />
<glyph unicode="8" horiz-adv-x="595" d="M4 176v475q0 33 10 51q10 24 29 48q14 19 37 38q27 18 41 25q-29 15 -49 31q-14 11 -25 24q-12 16 -27 41q-12 20 -16 45v516q12 63 62 113q49 46 110 55q52 -24 103 -24q43 0 96 24q61 0 106 -39t58 -65q13 -20 16 -64v-485q0 -43 -23 -90q-24 -49 -77 -78 q40 -22 71 -76q26 -48 29 -106v-399q0 -47 -10 -78q-7 -35 -47 -86q-37 -51 -127 -72q-6 3 -18.5 8t-18.5 8q-15 6 -45 9q-47 0 -92 -25q-71 6 -117 49q-41 38 -57 64q-14 27 -19 63zM211 174q0 -32 22 -51q21 -18 56 -21q26 0 43 17q18 15 18 43v532q0 55 -53 66 q-29 6 -59 -15q-24 -18 -27 -47v-524zM211 934q0 -30 25 -55q23 -20 57 -23q27 0 43 25q11 21 14 55v539q0 24 -18 45q-18 18 -45 18t-54 -18q-19 -13 -22 -43v-543z" />
<glyph unicode="9" horiz-adv-x="628" d="M0 432q32 16 49 39q16 22 29 80q9 56 18 74q8 -31 13 -74q6 -48 30 -78q25 -25 62 -37l-11 -35l-2 -36v-197q0 -29 23 -49q25 -19 57 -19q28 0 51 17q25 19 25 45v606q-8 -4 -34 -18t-44 -23q-41 -17 -98 -20q-50 0 -96 32q-43 34 -60 84q-12 49 -12 138v43v399 q0 45 8 76q11 37 47 86q37 55 129 73q6 -3 17.5 -9t17.5 -9q18 -6 47 -6q48 0 92 24q69 -6 115 -49q43 -40 57 -65q12 -21 21 -62v-475v-33q0 -15 8 -39q15 -30 29 -51q-11 -7 -21 -20q-4 -9 -8 -27q0 -31 29 -45q-16 -14 -29 -39q-4 -13 -8 -49v-516q-1 -2 -3.5 -7.5 t-8 -18.5t-11.5 -25q-17 -41 -55 -76q-34 -29 -94 -41q-55 25 -103 25q-41 0 -96 -25q-11 3 -37 10t-37 10q-21 5 -59 43q-31 39 -31 109v199l-4 35zM201 918q0 -28 14 -50q11 -19 47 -22q38 0 60 35q19 34 22 84v499q0 33 -22 52q-20 17 -56 20q-27 0 -43 -16 q-18 -15 -18 -43v-537q-1 -1 -4 -22z" />
<glyph unicode=":" d="M0 252v188q8 0 27 11q17 9 20 28q27 -24 64 -24q27 0 57 24q6 -17 25 -30q21 -7 38 -7v-194q-24 0 -36 -4q-13 -6 -21 -23q-32 19 -59 19q-34 0 -66 -19q0 12 -16 23q-9 5 -33 8zM0 1190v188q8 0 27 11q17 9 20 28q27 -24 64 -24q27 0 57 24q6 -18 25 -31q18 -6 38 -6 v-194q-24 0 -36 -4q-13 -6 -21 -23q-32 19 -59 19q-34 0 -66 -19q0 12 -16 23q-9 5 -33 8z" />
<glyph unicode=";" d="M0 31v188q10 0 25 10q16 8 22 29q28 -25 64 -25q26 0 57 25q6 -18 25 -31q18 -6 38 -6v-194q0 -23 -12 -78q-9 -56 -76 -117q4 13 7 26t6 25t4 17q1 7 2 22t2 23q0 34 -10 49q-6 15 -39 24q-19 6 -31 0q-10 -3 -35 -18q0 12 -16 23q-9 5 -33 8zM0 1190v188q8 0 27 11 q17 9 20 28q27 -24 64 -24q27 0 57 24q6 -18 25 -31q18 -6 38 -6v-194q-24 0 -36 -4q-13 -6 -21 -23q-32 19 -59 19q-34 0 -66 -19q0 12 -16 23q-9 5 -33 8z" />
<glyph unicode="?" horiz-adv-x="550" d="M0 1174q4 7 9 15.5t7 10.5l7 27v280l-5 43q0 15 -18 45q26 0 43 11q20 13 25 32q4 -2 10.5 -5t12 -5.5t9.5 -5.5q12 -6 31 -6q30 0 76 10q55 12 74 12q106 0 165 -65q61 -61 64 -189q0 -90 -43 -284q-35 -166 -41 -217l8 -47q-44 0 -47 -50q0 -7 6 -22q8 -12 17 -21 q-26 -39 -29 -43q-17 -29 -27 -53q-3 -8 -16 -59q-1 -11 -2 -39.5t-2 -42.5q0 -23 4 -37q4 -26 8 -39q-17 -6 -41 -33q-17 -20 -26 -41q-5 21 -31 47l-37 25q6 35 10 49q6 30 6 62q0 57 -8 125q-6 74 -6 106q43 6 43 47q0 13 -14 33q-3 5 -6.5 10t-5.5 7.5t-3 4.5 q31 73 54 148q6 31 20 106l12 99v196q9 37 -16 72q-22 32 -66 35q-59 0 -77 -62v-229q0 -16 8 -37l18 -29q-38 -6 -57 -38q-19 -29 -25 -76q-3 -49 -8 -70q-2 23 -8 70q-6 67 -37 92zM168 31v188q10 0 27 10q17 9 20 29q28 -25 64 -25q26 0 57 25q6 -19 24 -31q18 -6 39 -6 v-194q-25 0 -37 -4q-11 -6 -20 -23q-30 18 -59 18q-36 0 -66 -18q0 12 -16 23q-9 5 -33 8z" />
<glyph unicode="A" horiz-adv-x="772" d="M0 39l6 96l8 86q0 -6 6 -12q6 -45 17 -72q8 -25 24 -28q29 0 41 260q6 259 9 352q0 19 -19 41q-15 18 -26 29q19 0 34 10q14 8 17 33q0 21 -43 45l2 2q-2 0 -8 6q2 1 18 5.5t25 8.5q21 27 24 53l66 596v43l35 19q8 4 16 10q2 1 8 6t10 10q5 0 35 -12q17 -4 47 -8 q45 0 86 20l31 -20l35 -16l2 -37l59 -586q0 -25 21 -55q20 -34 41 -52q-30 -6 -33 -41q0 -21 10 -36q11 -14 31 -17q-20 -35 -25 -45q-2 -11 -5 -25.5t-3 -15.5q17 -289 27 -452q6 -135 22 -138q6 0 21 54l16 61l41 -172l-39 -16q-9 -6 -18 -15q-5 -5 -17 -14l-24 20 q-19 13 -64 13q-18 0 -28 -2q-15 0 -21 -2l-31 -6q-5 0 -14 -9l-14 -14q-2 2 -8.5 7t-10.5 9q-10 10 -20 15l-39 10l-21 168q7 -26 17 -45q10 -23 18 -31q5 0 11 2q0 2 4 64v145q0 33 -29 53q-24 18 -66 21q-43 0 -67 -6q-20 -6 -23 -35l-14 -246q0 -25 14 -25q4 0 11 7 q2 5 14 47q13 47 20 61l4 -184l-36 -12q-6 0 -17 -11q-8 -8 -16 -14q-49 19 -66 25q-21 0 -39 -9q-24 -12 -30 -16q0 1 -9 10q-7 8 -20 15zM258 623q0 -42 21 -54q14 -5 40 -8q21 0 37 8q19 9 19 56q0 19 -13 63q-10 41 -34 96q7 2 18 13q7 5 10 22q0 43 -28 60 q8 120 16 178q0 55 -4 69q-4 29 -23 95q0 -23 -12 -76q-3 -27 -8 -86q0 -99 16 -180q-23 -20 -26 -50q0 -20 20 -43q-29 -67 -39 -96q-6 -24 -10 -67z" />
<glyph unicode="B" horiz-adv-x="710" d="M12 41l29 186q3 -48 8 -69q3 -24 27 -27q6 0 12 45q1 16 2 56.5t2 60.5q0 94 -2 149q0 117 -2 185v41q-3 26 -14 53q-6 31 -35 51q37 15 37 45q0 15 -10 25q-5 10 -27 26q8 2 22 9q12 6 21 18q5 10 8 45q0 99 2 197q0 170 2 215v32q0 124 -10 127q-11 0 -23 -49 q-6 -47 -12 -53l-31 184q19 0 45 13q24 12 41 32q10 -12 29 -22q6 -1 21 -2t22 -2l213 22q-39 -3 -70 -6q-23 0 -53 -6l123 16q44 0 143 -24q94 -21 132 -174v-502q-5 -24 -25 -66q-17 -32 -88 -73q32 -17 70 -47q35 -22 47 -78v-486q-3 -32 -31 -84q-24 -46 -35 -49 q-21 -13 -76 -41q-38 -17 -92 -20q-19 0 -37 6l-176 18h-26q-40 0 -54 -4q-19 0 -41 -14q-8 8 -14 16q-5 5 -29 17q-13 5 -45 8zM301 170q0 -29 21 -59q22 -25 51 -25q33 0 51 10q22 12 33 41l-2 565q-17 45 -90 48q-21 0 -41 -17q-15 -15 -21 -43zM303 940q0 -32 21 -59 q20 -20 55 -23q59 0 74 57v566q-21 43 -76 43q-49 0 -72 -41z" />
<glyph unicode="C" horiz-adv-x="606" d="M4 762q25 0 43 12q16 11 10 37q-3 14 -14 27q-6 12 -35 18q0 3 27 21q24 18 24 69q0 21 -2 29v430q0 116 82 174q76 56 146 59q32 0 59 -8q35 -8 82 -28l29 2l24 10l31 -23l39 -14q-9 -17 -12 -31q0 -20 -2 -47v-98v-150v-47l10 -18l14 -17q-3 -2 -12.5 -6.5t-16.5 -7.5 q-15 -7 -30 -20q-17 -11 -29 -62q-6 -50 -12 -74q-5 35 -15 91q-6 46 -24 49q-2 1 -11.5 8t-15.5 12q-13 10 -26 15q8 12 16 22q0 6 6 18v267q-15 37 -59 37q-30 0 -49 -25t-13 -55l2 -484l11 -51q6 -16 26 -41q-30 -12 -33 -51q0 -37 33 -51q-9 -18 -16 -25 q-2 -3 -7.5 -14.5t-9.5 -20.5q-4 -15 -8 -49v-485q0 -31 17 -51q18 -18 47 -21q45 0 59 41v283l-4 28l-12 25q40 12 55 39q9 19 16 70q3 40 13 75q6 -49 10 -69q6 -46 14 -64q5 -14 25 -30q17 -13 49 -19l-8 -20l-4 -25v-72v-30v-25q0 -96 -8 -151q-16 -58 -29 -74 q-10 -20 -43 -43q-26 -18 -62 -29q-8 -1 -20.5 -1.5t-32 -1t-35.5 -1.5q-129 0 -172 37q-40 35 -84 143v455q-9 -30 -16 -43q0 21 4 37q1 7 2 24t2 25q0 37 -10 57q-9 21 -35 27z" />
<glyph unicode="D" horiz-adv-x="755" d="M4 37l16 194q11 -71 19 -96q6 -14 24 -14q17 0 17 53v492q0 18 -2 26q0 8 -12 29q-5 15 -13 31q-10 10 -22 28q23 17 26 49q0 15 -10 27q-9 19 -16 27q17 14 26 32q11 33 13 41q1 5 3 12.5t3.5 13t3.5 9.5v115q0 86 2 139v47q0 78 -2 127q0 75 -14 97q-8 -28 -17 -46 q-6 -35 -12 -51l-33 180q29 0 51 11q11 11 31 26q36 -10 49 -16q13 -3 49 -8q32 0 97 12q54 11 94 14q91 0 129 -12q34 -8 78 -43q42 -29 61 -61q16 -24 35 -86v-459q0 -24 10 -53q17 -34 23 -43q-31 -15 -31 -54q0 -11 8 -24q11 -14 23 -29q-6 -12 -15 -24q-2 -2 -10 -25 q-1 -3 -8 -53v-455q0 -86 -57 -143q-55 -52 -117 -64q-72 -7 -84 -10q-27 0 -45 -2q-39 0 -94 8q-16 2 -84 10h-27q-18 0 -45 -6q-7 -2 -22 -5t-23 -5q-23 20 -39 25zM285 193q-1 -6 -1 -12q0 -30 25 -58q31 -31 78 -31q22 0 39 17q13 16 20 43l3 530q0 6 -7 27q0 14 -12 32 q-6 17 -31 33q36 0 45 37q6 29 -10 43q-10 12 -31 16q16 16 33 50q13 32 13 45l-3 505q0 27 -18 48q-13 16 -45 22h-9q-28 0 -52 -16q-26 -17 -29 -54l2 -518q0 -16 10 -39q8 -22 31 -45q-38 0 -47 -37q-3 -19 10 -38q11 -14 35 -17q-22 -16 -35 -43q-2 -6 -5 -19t-5 -20 q0 -23 -2 -41z" />
<glyph unicode="E" horiz-adv-x="651" d="M0 27l4 86q0 21 6 65q4 28 13 62l8 -95q0 -17 20 -20q18 0 21 22v502q0 47 -13 76q-13 28 -34 47q25 8 28 43q0 34 -28 45q17 17 32 51q13 33 13 68v494q0 24 -21 24q-18 0 -18 -20l-4 -86l-19 84v57q0 16 -8 55q13 0 23 4q7 2 26 13q16 6 27 34q15 -6 39 -18 q18 -7 57 -10q34 0 80 14q42 10 80 14q34 0 80 -14q50 -12 69 -12q15 0 19 2q2 1 6.5 3.5t14 8.5t18.5 12q0 -17 20 -34q18 -12 41 -15q-9 -18 -14 -33l-6 -40v-271q3 -12 8 -35q12 -32 14 -36q-54 -29 -63 -60q-9 -36 -17 -65q-7 -44 -16 -62l-19 115q-3 24 -26 41 q-18 15 -53 26l16 31l6 35v207q3 27 -12 51q-11 23 -43 29q-33 3 -56 -17q-24 -18 -24 -53v-514q2 -6 6 -18.5t6 -18.5q5 -16 33 -16q16 0 22 6q5 5 11 29q3 11 -13 36q-12 21 -12 37q9 55 64 58q0 -35 6 -47q15 -15 33 -35q25 -22 28 -51q0 -47 -39 -70l54 -39l-54 -37 q7 -15 23 -33q18 -18 18 -34q0 -25 -43 -68q-43 -40 -43 -45q0 -8 13 -37q-1 1 -33 14q-25 9 -31 39q0 18 16 45q17 25 17 47q-6 43 -39 43q-12 0 -35 -20q-17 -17 -8 -47v-543q17 -36 76 -39q37 0 51 23q13 18 16 59v205l-4 47q0 16 -16 43q26 7 41 14q13 5 28 29 q11 20 17 53q4 38 16 76q5 -48 8 -68q6 -37 15 -61q6 -21 30 -33q26 -11 39 -22q-5 -10 -10 -15q-3 -3 -10 -20q-2 -8 -2 -35v-319l6 -19l10 -22l-35 -13l-32 -16q-11 0 -35 6q-18 6 -39 6q-23 0 -72 -6q-43 -6 -71 -6q-26 0 -76 6q-46 6 -72 6h-24l-74 -12q-32 16 -39 20z " />
<glyph unicode="F" horiz-adv-x="651" d="M0 27l4 86q0 21 6 65q4 28 13 62l8 -95q0 -17 20 -20q18 0 21 22v502q0 47 -13 76q-13 28 -34 47q25 8 28 43q0 34 -28 45q17 17 32 51q13 33 13 68v494q0 24 -21 24q-18 0 -18 -20l-4 -86l-19 84v57q0 16 -8 55q13 0 23 4q7 2 26 13q16 6 27 34q15 -6 39 -18 q18 -7 57 -10q34 0 80 14q42 10 80 14q34 0 80 -14q50 -12 69 -12q15 0 19 2q2 1 6.5 3.5t14 8.5t18.5 12q0 -17 20 -34q18 -12 41 -15q-9 -18 -14 -33l-6 -40v-271q3 -12 8 -35q12 -32 14 -36q-54 -29 -63 -60q-9 -36 -17 -65q-7 -44 -16 -62l-19 115q-3 24 -26 41 q-18 15 -53 26l16 31l6 35v207q3 27 -12 51q-11 23 -43 29q-33 3 -56 -17q-24 -18 -24 -53v-514q2 -6 6 -18.5t6 -18.5q5 -16 33 -16q16 0 22 6q5 5 11 29q3 11 -13 36q-12 21 -12 37q9 55 64 58q0 -35 6 -47q15 -15 33 -35q25 -22 28 -51q0 -47 -39 -70l54 -39l-54 -37 q7 -15 23 -33q18 -18 18 -34q0 -25 -43 -68q-43 -40 -43 -45q0 -8 13 -37q-1 1 -33 14q-25 9 -31 39q0 18 16 45q17 25 17 47q-6 43 -39 43q-12 0 -35 -20q-17 -17 -8 -47v-543q0 -5 8 -10q8 -4 16 -6q9 12 21 30l8 72l37 -180q-18 0 -45 -16q-6 -4 -17.5 -11.5t-17.5 -11.5 q-33 0 -80 6q-43 6 -75 6q-21 0 -33 -4q-17 0 -41 -8q-20 12 -39 20z" />
<glyph unicode="G" horiz-adv-x="741" d="M0 782q17 10 31 19q5 5 8 18q0 17 -10 29q-9 12 -29 12q2 2 4 4.5t5 7l5 7.5q7 11 17 28q9 19 12 29q0 13 2 27v534q20 32 43 62q17 23 49 45q27 16 68 26q29 5 94 8q40 0 92 -16q16 -4 30.5 -7.5t24 -6t11.5 -2.5q20 0 41 6q18 6 22 10q14 7 25 16q25 -20 33 -28 q16 -5 47 -8l-13 -33q-2 -11 -5 -25.5t-3 -15.5v-283l17 -33l18 -22q-3 -2 -13 -9t-16 -12q-19 -10 -35 -28q-15 -18 -24 -66q-9 -63 -10 -69q-3 48 -6 79q0 30 -21 60q-19 31 -57 51q12 18 16 23l6 34v179q0 43 -30 73q-27 30 -70 33q-39 0 -78 -31q-30 -27 -33 -71v-435 q0 -40 13 -81q13 -38 32 -62q-31 -3 -34 -49q0 -5 6 -14q5 -5 26 -17l-12 -12q-3 -3 -14 -25q-6 -15 -9 -55v-512q-6 -25 13 -53q19 -25 47 -25q60 0 63 58v407q0 17 -14 23q-25 3 -25 -23l-10 -82l-22 94v64l-13 33q15 2 29 6q11 0 27 8q17 6 32 33q50 -20 109 -23 q44 0 100 21q18 -12 39 -27q13 -6 49 -10q-4 -30 -8 -43l-4 -62l-26 -94l-11 82q3 31 -16 31q-13 0 -25 -12q-9 -9 -6 -23v-522l-16 -12q-11 -6 -17 -23q-38 10 -67 20q-7 1 -15 1q-29 0 -75 -9q-56 -12 -68 -12h-24q-69 0 -89 4q-17 4 -67 25q-37 18 -60 41q-32 43 -34 45 q-14 20 -25 49v530q-2 6 -5 17.5t-5 17.5q-4 18 -10 27q-5 10 -27 26z" />
<glyph unicode="H" horiz-adv-x="745" d="M0 39q0 38 4 61q3 15 8 58q1 6 2 19.5t2 17.5q0 13 11 32q6 -12 12 -63q5 -16 18 -35q6 0 9 12q0 13 2 23v440v101q0 12 -7 26q-3 9 -32 45q11 3 22 17q5 9 8 26q0 29 -30 53q9 26 16 37q6 18 12 39q3 24 6 37q1 3 5 37v477q3 18 -15 21q-11 0 -14 -13l-14 -75l-13 79 q-8 66 -12 103l31 6q16 3 37 18q74 -14 102 -18q35 0 47 2q23 4 51 16q6 -3 17.5 -8t17.5 -8q11 -4 29 -8h30l-16 -62l-31 -129l-14 78q0 15 -14 21q-7 0 -13 -6q-3 -6 0 -17v-547q0 -35 25 -63q24 -24 63 -27q35 0 66 25q26 23 29 65v547q3 18 -15 21q-11 0 -14 -13 l-14 -75l-13 79q-8 66 -12 103l31 6q16 3 37 18q56 -18 102 -18q35 0 47 2q23 4 51 16q17 -12 37 -20q17 0 27 -4h31l-17 -62l-30 -129l-15 78q0 15 -14 21q-6 0 -12 -6q-3 -6 0 -17v-547q0 -16 2 -26q6 -22 10 -31q6 -18 29 -35q-20 -14 -23 -43q0 -28 23 -45 q-19 -6 -31 -24q-7 -13 -10 -56v-538q0 -18 18 -21q21 0 18 23l11 65l16 -92l21 -94l-35 -12q-24 -12 -39 -21q-44 11 -101 14q-31 0 -43 -4q-12 0 -49 -12q-8 6 -20 14q-6 6 -33 15q-13 6 -39 10q0 38 4 61q3 15 8 58q4 34 5 37q0 14 10 32q6 -12 12 -63q5 -16 18 -35 q6 0 9 12q0 13 2 23v538q-3 32 -17 46q-10 10 -16 22q-12 3 -33 6q-6 1 -17 2t-16 2q-25 0 -55 -18q-26 -14 -29 -70v-538q0 -18 19 -21q21 0 18 23l11 65l16 -92l20 -94l-34 -12q-24 -12 -39 -21q-18 0 -49 8q-30 6 -52 6q-31 0 -43 -4q-11 0 -49 -12q-26 15 -43 27 q-30 12 -49 12z" />
<glyph unicode="I" horiz-adv-x="354" d="M0 39q0 38 4 61q3 15 8 58q1 6 2 19.5t2 17.5q0 13 11 32q6 -12 12 -63q5 -16 18 -35q6 0 9 12q0 13 2 23v440v101q0 12 -7 26q-3 9 -32 45q11 3 22 17q5 9 8 26q0 29 -30 53q9 26 16 37q6 18 12 39q3 24 6 37q1 3 5 37v477q3 18 -15 21q-11 0 -14 -13l-14 -75l-13 79 q-8 66 -12 103l31 6q16 3 37 18q74 -14 102 -18q35 0 47 2q23 4 51 16q6 -3 17.5 -8t17.5 -8q11 -4 29 -8h30l-16 -62l-31 -129l-14 78q0 15 -14 21q-13 0 -13 -23v-489v-43q0 -22 5 -39q3 -18 12 -33q10 -13 22 -23q-30 -9 -30 -53q0 -31 30 -43q-23 -29 -32 -59 q-7 -28 -7 -49v-41v-473q0 -18 19 -21q21 0 18 23l11 65l16 -92l20 -94l-34 -12q-24 -12 -39 -21q-18 0 -49 8q-30 6 -52 6q-31 0 -43 -4q-11 0 -49 -12q-26 15 -43 27q-30 12 -49 12z" />
<glyph unicode="J" horiz-adv-x="612" d="M0 481q33 11 55 43q19 28 23 56v32q0 22 12 56q3 -9 10 -74q0 -48 25 -76q23 -26 57 -37q-12 -15 -18 -30l-6 -37v-256q0 -29 12 -47q12 -12 59 -15q31 0 39 17q5 14 8 51v440v101q0 14 -6 26q-3 9 -32 45q10 3 22 17q5 9 8 26q0 29 -30 53q9 26 16 37q6 18 12 39 q4 24 6 37q1 4 2 17.5t2 19.5v477q0 18 -14 21q-11 0 -14 -13l-15 -75l-12 79q-8 66 -12 103l31 6q15 3 36 18q56 -18 103 -18q35 0 47 2q23 4 51 16q17 -12 37 -20q17 0 27 -4h30l-16 -62l-31 -129q0 23 -4 37q-2 6 -5 19t-5 20q0 17 -14 23q-13 0 -13 -23v-489v-43 q0 -25 4 -39q3 -16 13 -33q10 -13 22 -23q-30 -9 -30 -53q0 -31 30 -43q-24 -31 -33 -59q-6 -24 -6 -49v-41v-473q0 -72 -84 -115q-79 -36 -172 -39q-84 0 -145 43q-54 42 -57 94v242q0 33 -5 51q-3 19 -20 51z" />
<glyph unicode="K" horiz-adv-x="749" d="M0 39q0 38 4 61q3 15 8 58q1 6 2 19.5t2 17.5q0 13 11 32q6 -12 12 -63q5 -16 18 -35q6 0 9 12q0 13 2 23v440v101q0 12 -7 26q-3 9 -32 45q11 3 22 17q5 9 8 26q0 29 -30 53q9 26 16 37q6 18 12 39q3 24 6 37q1 3 5 37v477q3 18 -15 21q-11 0 -14 -13l-14 -75l-13 79 q-8 66 -12 103l31 6q16 3 37 18q74 -14 102 -18q35 0 47 2q23 4 51 16q6 -3 17.5 -8t17.5 -8q11 -4 29 -8h30l-16 -62l-31 -129l-14 78q0 15 -14 21q-13 0 -13 -23v-561l183 532q6 24 6 33q0 7 -8 10q-17 0 -23 -14l-39 -80l41 195q33 0 45 4q18 3 41 20q18 -6 58 -18 q27 0 57 18l31 -16l41 -6l-78 -199l8 70v12q0 4 -6 10q-20 6 -23 -14l-133 -399q0 -46 -2 -60v-32q6 -18 12 -39q5 -15 19 -43q14 -20 41 -45q-12 -18 -25 -31q-4 -9 -8 -27q0 -46 47 -57q-31 -25 -31 -68q0 -25 2 -37q0 -15 9 -36l88 -490q12 -18 14 -18q21 0 12 20l6 66 l46 -170l-29 -9q-8 0 -31 -20q-18 0 -43 10q-16 5 -49 10q-43 0 -90 -20q-7 4 -21.5 12.5t-21.5 12.5l-35 6l-23 174l31 -76q3 -2 10.5 -5.5t10.5 -4.5q16 3 10 24l-98 578q-21 -21 -33 -45q-19 -40 -19 -49v-473q0 -24 15 -27q11 0 14 8q2 6 2 21l4 65q4 -34 8 -49 q0 -2 5.5 -19t7.5 -26l16 -94q-17 0 -33 -8q-13 -5 -28 -23q-44 11 -101 14q-31 0 -43 -4q-11 0 -49 -12q-26 15 -43 27q-30 12 -49 12z" />
<glyph unicode="L" horiz-adv-x="659" d="M0 39q0 38 4 61q3 15 8 58q1 6 2 19.5t2 17.5q0 13 11 32q6 -12 12 -63q5 -16 18 -35q6 0 9 12q0 13 2 23v440v101q0 12 -7 26q-3 9 -32 45q11 3 22 17q5 9 8 26q0 29 -30 53q9 26 16 37q6 18 12 39q3 24 6 37q1 3 5 37v477q0 18 -15 21q-11 0 -14 -13l-14 -75l-13 79 q-8 66 -12 103l31 6q16 3 37 18q55 -18 102 -18q35 0 47 2q23 4 51 16q17 -12 37 -20q17 0 27 -4h30l-16 -62l-31 -129q0 23 -4 37q-2 6 -5 19t-5 20q0 17 -14 23q-13 0 -13 -23v-489v-43q0 -22 5 -39q3 -18 12 -33q10 -13 22 -23q-30 -9 -30 -53q0 -31 30 -43 q-23 -29 -32 -59q-7 -28 -7 -49v-41v-473q0 -31 33 -45q37 -13 76 -13q27 0 47 17q20 20 31 47v207l-6 43q-3 12 -21 39q18 9 25 16q4 3 28 27q13 20 19 69q3 50 12 74q0 -12 8 -64q6 -56 29 -82q23 -23 57 -38l-12 -43l-12 -46v-208v-37q0 -19 6 -37q2 -5 6 -14.5t6 -14.5 q4 -8 12 -20l-40 -15q-36 -9 -50 -16q-47 13 -49 14q-20 0 -55 -14q-30 -12 -41 -12q-12 0 -18 12q-39 10 -70 14q-5 1 -13 1.5t-21.5 1t-24.5 1.5q-70 0 -140 -18q-20 14 -55 29q-15 6 -41 10z" />
<glyph unicode="M" horiz-adv-x="1011" d="M0 37q0 38 4 61q3 15 8 58q1 6 2 19.5t2 17.5q0 13 11 32q6 -12 12 -63q5 -16 18 -35q6 0 9 12q0 13 2 23v440v100q0 13 -7 27q-3 9 -32 45q11 3 22 17q5 9 8 26q0 29 -30 53q9 26 16 37q6 18 12 39q3 25 6 37q1 3 5 37v477q0 18 -15 21q-11 0 -14 -13l-14 -75l-13 79 q-8 66 -12 103l45 6q17 4 25 10q16 8 18 10q5 -2 12 -4l17.5 -5l17.5 -5q24 -6 49 -6q53 0 109 20l41 -18l51 -12l86 -621l80 627l53 6q13 0 29 8q17 7 20 10q47 -19 111 -22q25 0 59 10q38 12 41 12q18 -18 35 -24q5 -1 47 -8l-24 -191l-15 62q3 3 0 14q-3 12 -12 12 q-3 0 -6 -10q0 -12 -2 -18v-525q0 -26 8 -47q4 -5 14 -19t15 -20q-26 -9 -29 -45q0 -8 14 -22q20 -16 21 -17q-23 -26 -29 -41q-1 -3 -2 -8t-2.5 -13.5t-3.5 -15.5q-3 -21 -6 -38v-523q-6 -23 18 -26q23 0 17 26l10 86l37 -190q-14 0 -25 -8q-3 -1 -8 -3t-8 -3l-31 -23 q-55 18 -106 18q-26 0 -56 -6q-9 -2 -27.5 -6t-27.5 -6l-43 20l-51 19l30 188l13 -94q0 -11 22 -14q7 8 19 28v265v92v31q0 118 -17 196q-17 42 -22 51q25 11 22 47q-3 25 -28 33q15 50 26 105q8 38 11 94q0 31 -7 106q-4 79 -4 80q-5 -21 -13 -52.5t-11 -43.5 q-4 -22 -11 -90q0 -57 -2 -100q0 -74 -2 -101q-25 -6 -28 -35q0 -37 32 -43q-4 -7 -11 -21.5t-11 -21.5q-8 -25 -19 -82q-7 -64 -14 -100q-6 -40 -6 -82l-53 -440l-62 -35l-59 39q0 136 -25 283q-23 154 -41 247q-16 110 -26 142q-4 22 -15 65q13 16 13 49q0 28 -27 43 q0 26 6 56q-9 107 -22 202q-12 126 -21 129q-1 0 -4 -10q0 -10 4 -18v-221v-48q0 -22 4 -36q3 -15 25 -52q-13 -18 -16 -45q0 -25 18 -49q-11 -28 -14 -35q-3 -9 -9 -30q0 -19 -6 -37q0 -26 -2 -49v-478q0 -25 21 -28q24 0 18 26l6 80l21 -96l16 -92q-11 0 -22 -8 q-3 -1 -8.5 -3t-8.5 -3l-33 -23l-36 12q-5 1 -18.5 2t-20.5 2q-20 0 -41 -6q-4 -1 -11 -3t-11.5 -3.5t-8.5 -3.5q-6 3 -18 12q-3 2 -14 7.5t-17 9.5q-11 4 -37 8z" />
<glyph unicode="N" horiz-adv-x="643" d="M0 37q0 38 4 61q3 15 8 58q1 6 2 19.5t2 17.5q0 13 11 32q6 -12 12 -63q5 -16 18 -35q6 0 9 12q0 13 2 23v440v100q0 13 -7 27q-3 9 -32 45q11 3 22 17q5 9 8 26q0 33 -28 53q4 3 11 8.5t11 8.5q10 7 13 24q0 23 2 41v39v29v477q0 18 -15 21q-11 0 -14 -13l-14 -75 l-13 79q-8 66 -12 103l45 6q17 4 25 10q16 8 18 10q23 -17 53 -20q30 0 56 20l36 -22q28 -12 46 -21l139 -741v637q0 18 -12 18t-15 -16l-20 -63l-21 178l37 12q15 10 31 18q23 -17 59 -20q13 0 25 6q4 2 8.5 4t12 5l12.5 5q10 -10 30 -22q3 -1 10.5 -4.5t10.5 -5.5 q8 0 16 -2l-20 -174l-17 63q-3 18 -16 18q-17 0 -12 -22v-498v-35q0 -11 6 -32q6 -18 12 -33q7 -14 20 -27q-19 -11 -22 -49q0 -31 31 -43q-8 -8 -17 -14q-6 -3 -12 -45q-4 -45 -10 -62q-6 -18 -6 -24v-596q-20 0 -41 -6q-17 -7 -25 -15q-2 -2 -6 -5t-6 -5q-17 7 -31 18 l-49 13q-3 18 -20.5 130.5t-28.5 182.5q-24 175 -39 254q-9 72 -27 107q-5 12 -15 33.5t-15 33.5q18 15 18 47q0 15 -10 25q-9 12 -21 24q2 5 6.5 14.5t6.5 14.5q2 8 2 25q-2 22 -9 77q-4 51 -10 76q-1 6 -6 34.5t-8 47.5q-4 8 -8 12v-170v-59q0 -25 2 -37q3 -14 8 -22 q5 -10 8 -13q-18 -24 -18 -49q0 -26 20 -49q-5 -9 -10 -21.5t-6 -15.5q0 -19 -2 -37v-24v-522q0 -30 14 -33q18 0 12 26l8 82q2 -10 6.5 -29.5t6.5 -29.5q4 -17 8 -55l6 -82l-39 -6q-12 -3 -20 -11q-7 -7 -17 -12q-21 18 -49 18q-13 0 -26 -8q-4 -2 -11.5 -5t-11.5 -5 q-6 3 -18 12q-3 2 -14 7.5t-17 9.5q-11 4 -37 8z" />
<glyph unicode="O" horiz-adv-x="681" d="M0 774q9 6 18 21q8 11 11 26q0 31 -29 45q17 14 27 37q6 15 10 51v516q1 1 3.5 7.5t7.5 18.5t11 26q17 41 54 75q37 29 96 41q53 -24 102 -24q45 0 97 24q35 -10 71 -24q24 -5 53 -31q23 -17 39 -49q14 -22 17 -64v-485q0 -33 2 -43q0 -13 12 -31q8 -12 21 -26 q8 -5 18 -19q-14 -7 -23 -16q-9 -6 -12 -21q-1 -6 -1 -11q0 -31 32 -44q-25 -19 -39 -53q-12 -30 -12 -62q0 -18 2 -24v-399q0 -47 -10 -78q-7 -33 -48 -86q-37 -51 -127 -72q-6 3 -18 8t-18 8q-15 6 -45 9q-48 0 -93 -25q-70 6 -116 49q-43 40 -58 64q-12 25 -18 63v475v27 q0 14 -8 45q-15 30 -29 51zM244 174q0 -32 22 -51q21 -18 56 -21q26 0 43 17q18 15 18 43v426v67q0 33 -8 54q-4 12 -13 30q-4 9 -24 35q10 15 20 25q12 12 15 26q0 33 -35 41q23 20 31 41q9 21 12 43q0 25 2 41v484q0 24 -18 45q-18 18 -46 18q-24 0 -51 -18 q-21 -15 -24 -43v-471q0 -25 4 -41q0 -22 8 -43q4 -13 25 -54q-4 -4 -12.5 -11t-12.5 -11q-6 -6 -10 -25q0 -36 35 -47q-9 -12 -17 -20q-4 -9 -12 -29q-5 -14 -8 -51v-500z" />
<glyph unicode="P" horiz-adv-x="630" d="M0 27l4 86q0 21 6 65q4 28 13 62l8 -95q0 -17 20 -20q18 0 21 22v502q0 47 -13 76q-13 28 -34 47q25 8 28 43q0 34 -28 45q17 17 32 51q13 33 13 68v494q0 24 -21 24q-18 0 -18 -20l-4 -86l-19 84v57q0 16 -8 55q13 0 23 4q7 2 26 13q16 6 27 34q15 -6 39 -18 q18 -7 57 -10q34 0 80 14q42 10 80 14q66 0 96 -6q30 -7 53 -22q25 -13 64 -60q36 -42 45 -90v-506q-14 -50 -29 -84q-8 -27 -37 -59q-26 -26 -53 -37q-14 -5 -109 -22q-79 -9 -90 -47q-6 -37 -6 -80v-480q0 -18 17 -18t14 20l14 93l15 -205l-43 -6q-5 -4 -19 -14t-20 -15 q-26 7 -37 14q-12 6 -29 6q-43 0 -90 -20q-9 9 -31 20q-15 6 -39 9q-14 0 -18 -2zM266 954q-1 -6 -1 -13q0 -23 16 -46q20 -23 55 -23q28 0 45 29t14 51v494q1 4 2 11t2 11q0 26 -18 50q-16 19 -45 22q-30 0 -51 -24q-19 -22 -19 -54v-508z" />
<glyph unicode="Q" horiz-adv-x="677" d="M0 774q9 6 18 21q8 11 11 26q0 31 -29 45q17 14 27 37q6 15 10 51v516q1 1 3.5 7.5t7.5 18.5t11 26q17 41 54 75q37 29 96 41q53 -24 102 -24q45 0 97 24q35 -10 71 -24q24 -5 53 -31q23 -17 39 -49q14 -22 17 -64v-485q0 -33 2 -43q0 -13 12 -31q8 -12 21 -26 q8 -5 18 -19q-14 -7 -23 -16q-9 -6 -12 -21q-1 -6 -1 -11q0 -31 32 -44q-25 -19 -39 -53q-12 -30 -12 -62q0 -18 2 -24v-399q0 -52 -13 -89q-9 -31 -20 -47q-6 -12 -31 -37q41 -12 60 -34q16 -18 26 -49q6 -28 15 -37q7 -10 26 -21q18 -12 33 -18q-35 -20 -45 -25 q-16 -11 -43 -14q-26 0 -53 16q-27 13 -56 56q-27 36 -57 53q-13 5 -45 14q-6 1 -20 2t-21 2q-32 0 -61 -4l-54 -4q-70 6 -116 49q-43 40 -58 64q-12 25 -18 63v475v27q0 14 -8 45q-15 30 -29 51zM244 174q0 -32 22 -51q21 -18 56 -21q26 0 43 17q18 15 18 43v426v67 q0 33 -8 54q-4 12 -13 30q-4 9 -24 35q10 15 20 25q12 12 15 26q0 33 -35 41q23 20 31 41q9 21 12 43q0 25 2 41v484q0 24 -18 45q-18 18 -46 18q-24 0 -51 -18q-21 -15 -24 -43v-471q0 -25 4 -41q0 -22 8 -43q4 -13 25 -54q-4 -4 -12.5 -11t-12.5 -11q-6 -6 -10 -25 q0 -36 35 -47q-9 -12 -17 -20q-4 -9 -12 -29q-5 -14 -8 -51v-500z" />
<glyph unicode="R" horiz-adv-x="645" d="M0 27l4 86q0 21 6 65q4 28 13 62l8 -95q0 -17 20 -20q18 0 21 22l-6 506v31q0 25 -11 47q-6 20 -30 41q25 8 28 43q0 34 -28 45q22 17 32 43q6 24 9 45v35v490q0 24 -17 24q-18 0 -18 -20l-4 -86l-19 84v57q0 33 -4 45q-1 4 -2 13t-2 12q28 0 47 8q18 6 29 28 q33 -11 43 -16q17 -4 51 -8q80 12 162 24q41 0 69 -14q30 -14 52 -27q24 -12 51 -55q26 -43 31 -84v-514q-6 -28 -23 -63q-14 -29 -68 -70q16 -12 39 -35q16 -14 35 -33q25 -58 25 -110v-477q-3 -19 14 -19q1 0 10 21l8 65l29 -188q-22 0 -39 -10l-30 -25q-21 10 -46 14 q-15 0 -34 -8q-18 -6 -21 -6q-10 26 -28 39l-35 18v631q0 63 -70 66q-42 0 -57 -27q-7 -19 -11 -49v-516q0 -5 7 -19q6 -6 16 -6q11 3 14 19l6 86l35 -213q-21 3 -45 -2q-19 -19 -35 -27q-26 6 -41 14q-12 6 -38 6q-27 0 -35 -2q-3 0 -41 -18q-13 16 -37 25zM233 938v-8 q0 -29 19 -53q19 -21 49 -21h8q16 0 41 25q19 25 19 55v512q0 29 -21 53q-17 20 -49 23q-22 0 -47 -19q-19 -16 -19 -43v-524z" />
<glyph unicode="S" horiz-adv-x="532" d="M0 498q21 6 33 12q9 4 28 27q15 21 21 63q4 50 10 76q9 -51 14 -74q6 -38 17 -57q8 -16 31 -29q6 -3 19.5 -9.5t21.5 -10.5q-20 -20 -23 -29q0 -13 -6 -31l-4 -18v-195q0 -41 12 -84q11 -33 61 -33h9q40 0 57 29q18 27 18 80q0 19 -2 31q0 30 -10 94q-6 75 -43 188 q-31 113 -71 162q-36 47 -64 66q1 1 2 2.5l3 4.5t3 5l4 23q0 8 -4 16q0 12 -14 18q-9 5 -37 15q2 4 8 28q4 16 4 41q-43 169 -73 301q-25 122 -25 193q0 39 14 94q14 53 56 84q37 24 65 35q22 7 90 20h9q24 0 59 -12q33 -12 55 -12h8q16 0 43 16q3 -25 27 -31l39 -10 l-16 -43l-5 -57v-201q0 -28 5 -51q5 -18 12 -35q7 -13 20 -24q-26 -3 -45 -19q-10 -9 -20 -27l-10 -71q-6 -59 -15 -74q-11 11 -14 33q0 29 -2 49q0 35 -4 47q0 14 -17 31q-14 18 -47 31q16 20 19 28q2 4 4.5 11t3.5 8l-2 55v149q-8 40 -17 68q-12 26 -63 29q-38 0 -55 -29 q-12 -27 -15 -76q0 -43 6 -84q2 -11 31 -131q21 -81 68 -194q45 -103 57 -117q20 -16 31 -29q-4 -16 -10 -28q-6 -15 -3 -29q0 -6 21 -12q17 -3 27 -13q-15 -46 -15 -47q0 -9 6 -33q37 -111 66 -241q25 -122 25 -189q0 -88 -54 -180q-50 -92 -166 -92q-31 0 -71 6 q-13 2 -70 12q-29 0 -37 -4q-10 -10 -22 -16q-6 20 -15 29l-12 12q-4 4 -29 10l19 39v45v227l-8 89q0 1 -15 22q-12 18 -12 27z" />
<glyph unicode="T" horiz-adv-x="720" d="M0 1159l23 47q12 38 12 68v315q3 1 8 3t8 3q13 7 19 11q8 4 22 18q12 9 17 14q13 -13 26 -18q22 -4 31 -8q28 7 31 8q18 6 36 18q55 -18 103 -18q35 0 47 2q23 4 51 16q27 -19 82 -22q30 0 55 22q15 -15 33 -26q16 -12 19 -15q4 0 22 -6v-315q0 -30 12 -68l23 -47 q-22 -5 -35 -12q-7 0 -24 -29q-15 -24 -21 -69q-3 -47 -8 -66q-3 6 -12 70q-6 60 -31 82q-18 16 -55 22q10 18 14 29l6 39v272q-6 26 -37 29q-37 0 -37 -29v-489v-43q0 -25 4 -39q3 -16 13 -33q10 -13 22 -23q-30 -9 -30 -53q0 -31 30 -43q-24 -31 -33 -59q-6 -24 -6 -49 v-41v-473q0 -18 19 -21q21 0 18 23l17 71l16 -94l14 -98l-35 -12q-18 -9 -38 -21q-44 11 -101 14q-31 0 -43 -4q-11 0 -49 -12q-8 6 -20 14q-6 6 -33 15q-13 6 -39 10q0 38 4 61q3 15 8 58q1 6 2 19.5t2 17.5q0 13 11 32q6 -12 12 -63q5 -16 18 -35q5 0 8 12q0 13 2 23v440 v101q0 14 -6 26q-3 9 -32 45q11 3 22 17q5 9 8 26q0 29 -30 53q0 8 14 25q7 11 16 33q3 12 6 33q0 30 2 59v281v190q0 11 -12 23q-7 7 -22 16q-24 -6 -33 -33v-274l6 -39q0 -7 14 -29q-32 0 -57 -22q-22 -19 -31 -84q-6 -64 -10 -68q0 36 -8 72q-3 36 -23 65q-18 28 -57 39z " />
<glyph unicode="U" horiz-adv-x="651" d="M0 1593q23 0 43 13t25 32q55 -18 102 -18q35 0 47 2q23 4 51 16q12 -18 37 -24q16 -4 29 -4l-10 -66q-1 -13 -7 -74q0 -26 -8 -53l-10 82q0 17 -12 23q-13 0 -13 -23v-489v-43q0 -22 5 -39q3 -18 12 -33q10 -13 22 -23q-30 -9 -30 -53q0 -31 30 -43q-23 -29 -32 -59 q-7 -28 -7 -49v-41v-473q6 -20 27 -35q8 -4 33 -19q35 0 55 23q22 25 19 55v500l-7 43q-3 15 -14 29q-8 16 -16 28q37 6 37 47q0 14 -13 27q-16 12 -24 22q19 11 28 29q6 15 9 45v27v512q0 11 -15 14q-3 0 -14 -16l-8 -66l-23 191l31 6q7 0 12 10l12 12q27 -19 76 -22 q45 14 62 22q11 -17 34 -28l35 -8l-20 -185l-19 64q5 13 -10 16l-10 -14v-522q0 -28 12 -52q11 -18 37 -35q-15 -3 -29 -20q-12 -15 -6 -45q0 -5 19 -21q10 -8 16 -14q-2 -2 -22 -26q-8 -13 -15 -31l-12 -60v-467q0 -53 -27 -96q-23 -38 -57 -59q-12 -8 -57 -35 q-41 20 -93 23q-17 0 -41 -7q-24 -4 -43 -16q-26 5 -59 25q-27 18 -49 43q-11 12 -35 49q-12 24 -12 43v440v100q0 15 -6 27q-2 6 -33 45q11 3 22 16q6 12 9 27q0 28 -31 53q12 18 18 33q8 16 13 47q4 22 8 70v481q0 18 -15 21q-11 0 -14 -13l-6 -90q-12 48 -16 56 q-7 25 -7 36q0 29 -8 45q-6 18 -12 39z" />
<glyph unicode="V" horiz-adv-x="770" d="M0 1593l39 17l18 12q1 2 7 7t10 9q21 -12 51 -24q17 -6 51 -10q49 0 94 34q1 -2 7.5 -8t11.5 -10q12 -8 20 -12l39 -11l23 -184l-23 66q-3 11 -8 16q0 5 -8 8q-12 0 -15 -20q0 -31 2 -43l31 -469q0 -20 6 -41q2 -5 6.5 -14.5t6.5 -14.5l28 -53q0 -4 -12 -25 q-4 -12 -8 -32q0 -29 24 -50q-8 -20 -12 -32v-33l17 -213l20 213l-4 33q0 8 -16 32q0 6 14 23q10 15 14 31q0 36 -24 57q24 38 32 49q7 24 11 51q0 19 -2 27l45 446q4 14 8 50v14q0 6 -2 10q-3 3 -13 0q-6 0 -14 -14l-24 -72l4 189l37 12q6 0 14 8q12 8 18 16q36 -14 66 -24 q22 0 37 6q13 5 32 18q0 -3 9 -12q7 -7 20 -12l41 -15q-2 -17 -12 -57q-6 -34 -6 -39l-13 -92q-1 0 -10 25q-7 28 -10 34q0 12 -8 23q-9 0 -13 2q-2 0 -8 -6q0 -11 -10 -47q0 -90 -4 -127q-3 -50 -33 -359q0 -9 8 -20q4 -6 8 -18q0 -21 17 -41l29 -29q-22 0 -37 -10 q-12 -9 -15 -33q0 -21 43 -45v-4q3 0 7 -4q-27 -8 -44 -15q-4 -5 -12 -14t-12 -14q-2 -4 -5 -12.5t-5 -12.5l-62 -594l-2 -45l-26 -18q-7 -3 -17 -11q-1 -1 -7 -6t-11 -10q-10 0 -35 10q-16 6 -47 10q-45 0 -86 -20l-31 20l-35 17l-2 37l-53 583q0 18 -10 33 q-4 6 -12.5 18.5t-12.5 18.5q-9 18 -33 39q30 6 33 41q0 19 -12 37q-8 13 -29 16q24 20 37 35q0 6 6 27q6 18 6 24l-30 475q-3 45 -13 62q-6 13 -16 20q-9 6 -16 6q-2 0 -11 -26l-10 -70z" />
<glyph unicode="W" horiz-adv-x="1009" d="M0 1602q21 0 39 6q22 7 33 16q10 10 18 14q44 -18 86 -18q17 0 41 6q21 6 45 12q20 -12 39 -20l45 -6l-20 -205l-11 68q-3 25 -18 28q-5 0 -14 -30l28 -547l11 -45l10 -29q-18 -18 -21 -41q0 -32 23 -49q-2 -16 -4.5 -37t-3.5 -27q0 -39 4 -57q2 -7 5 -22t5 -23 q1 4 4.5 23.5t5.5 27.5q0 28 2 53q0 21 -4 33q0 19 -4 27q20 14 23 49q0 25 -21 43l14 29l13 45l41 557q0 18 -6 18q-9 0 -15 -4q-3 -6 0 -14l-18 -78l-4 211l41 6l30 16q32 -13 82 -16q14 0 41 6q34 8 37 10q9 -4 21.5 -9t15.5 -7l39 -6l-21 -197l-10 68q-3 26 -18 29 q-6 0 -15 -31l29 -547l10 -45l11 -29q-18 -18 -21 -41q0 -32 23 -49q-2 -13 -3.5 -25t-3 -23t-2.5 -15q0 -35 5 -58q2 -7 5 -22t5 -23q1 4 4.5 23.5t5.5 27.5q0 29 2 54q0 18 -4 28q0 19 -4 31q19 14 22 49q0 26 -20 43l14 29l13 45l40 557q0 18 -6 18q-12 -16 -14 -18 l-18 -78l-11 199l45 6q9 0 33 16q25 -13 68 -16q30 0 57 16q9 -14 35 -26l35 -8l-41 -189l-13 55q0 13 -12 19q-5 0 -10 -10q0 -13 -4 -21l-53 -530q0 -13 4 -21q0 -1 4 -8l8 -14q3 -4 8 -12.5t8 -12.5q-36 0 -39 -49q0 -8 9 -20q9 -6 24 -21q-7 -9 -24 -31q-8 -13 -15 -28 q-3 -8 -10 -54q-3 -34 -6 -47l-45 -569l-29 -21l-18 -20q-22 12 -58 16q-11 0 -26 -6q-21 -7 -27 -10l-31 25l-32 16v215l-27 293l-20 172q0 18 -15 18q-17 0 -14 -20l-21 -174l-20 -289v-209q-18 -6 -35 -20q-15 -12 -24 -27q-27 18 -64 18q-25 0 -55 -18q-6 15 -27 27 q-18 12 -29 12l-40 561q0 21 2 37q0 39 -25 94q-21 27 -33 45q25 9 25 47q0 9 -10 19q-2 3 -21 22q15 24 21 39l10 41l-39 555q9 18 -12 21q-5 -5 -13 -15l-10 -98z" />
<glyph unicode="X" horiz-adv-x="755" d="M0 41l51 176v-41q0 -23 -4 -33q0 -11 19 -14q9 0 12 8q5 14 8 19l131 518q6 18 6 33q0 20 -4 32q-3 17 -22 33q24 12 24 43q0 14 -14 25q-4 4 -12.5 11t-12.5 11q18 24 21 41v35q0 23 -2 25l-107 528q0 17 -14 20q-4 -4 -12 -14v-82l-68 191l33 12q18 12 26 20 q47 -19 109 -22q31 0 47 4q21 6 51 18q15 -18 35 -24q13 -4 35 -8q21 0 41 -2l-2 -177l-27 62q0 17 -20 20q-9 0 -9 -16q0 -11 3 -20l55 -289q0 -17 4 -27q2 -7 14 -4l8 27l78 315q-3 18 -8 18q-11 0 -14 -14l-25 -82l-6 191l51 6q24 6 45 24q34 -18 68 -18q31 0 61 18 q10 -16 23 -24q4 -2 11 -5t11 -5q11 0 17 -2l-62 -189v70q3 14 -6 20q-17 6 -20 -14l-146 -526q0 -9 -2 -17v-8q0 -14 6 -41q6 -24 23 -41q-11 -11 -14 -47q0 -12 12 -21q10 -5 22 -14q-11 -9 -22 -31l-6 -41l108 -561q3 -17 9.5 -23.5t15.5 -4.5l10 20l-4 84l76 -184 q-26 0 -47 -8q-21 -17 -31 -25q-44 20 -98 23q-17 0 -47 -9q-32 -8 -48 -14q-18 12 -30 18l-41 7l-27 192l33 -76q3 -15 9 -21.5t15 -4.5q11 0 11 22l-74 371q-9 25 -16 27q-6 0 -9 -9q0 -8 -4 -12l-84 -358q-3 -7 -8 -25q0 -7 10 -10q14 0 17 20l26 76l-2 -194 q-11 0 -32 -3q-23 -4 -50 -20q-28 20 -67 23q-35 0 -64 -23l-30 27z" />
<glyph unicode="Y" horiz-adv-x="757" d="M0 1612l33 6q13 3 20 8q9 4 19 12l100 -20l100 20q14 -19 47 -28h33q22 4 23 4l-8 -199l-29 84q0 7 -16 10q-6 0 -11 -10q0 -10 -4 -14l96 -498l97 504q3 6 -2 16q-4 7 -13 11q-3 0 -10 -7q-4 -8 -8 -12l-27 -84l-4 199q4 -1 13 -2t12 -2q13 0 31 6q7 5 17.5 12t14.5 10 q28 -17 74 -20q11 0 29 6q3 1 16 6t21 8q5 -10 26 -22l27 -8l-37 -193l-8 72q3 3 0 12q-3 5 -8 8q-5 -4 -13 -16l-86 -408q-4 -17 -12.5 -50.5t-11.5 -47.5q-4 -23 -4 -55q11 -43 22 -68q-43 -9 -43 -53q0 -34 27 -49q-23 -17 -35 -41q-3 -6 -16 -45q-1 -3 -5 -17.5 t-6 -21.5l2 -512q0 -17 23 -17l8 8t4 5l12 84l39 -180l-43 -3q-10 0 -28 -10q-20 -8 -23 -10q-49 11 -104 14q-34 0 -70 -8q-37 -6 -39 -6q-15 10 -31 18q-4 1 -11 3.5t-11 3.5q-2 1 -9 2t-10 2l23 174l16 -64q0 -13 15 -16q6 0 8 10q2 6 6 14v467q0 24 -6 45q-9 26 -16 39 q-6 19 -15 25l-37 37q33 17 33 48q0 7 -2 15q-6 38 -53 41q6 12 12 33q2 6 5 18.5t5 18.5q1 6 2 18.5t2 18.5q0 17 -6 47q-6 27 -12 57l-78 414q3 6 -2 16q-5 7 -12 11q-16 -12 -19 -15v-86z" />
<glyph unicode="Z" horiz-adv-x="583" d="M-2 1169l10 31l2 33v264l-6 59l-4 37q13 0 23 4q14 7 22 9q26 19 41 32q1 -1 7.5 -6t10.5 -10q7 -5 23 -8q15 0 61 12q43 12 74 12q34 0 80 -14q19 -5 37.5 -9t21.5 -5q15 0 27 10q12 12 21 18q7 -15 24 -28l31 -15l-17 -36q-7 -28 -8 -31q-1 -4 -2 -15t-2 -16l-76 -426 q-13 -42 -16 -106q0 -31 4 -47q5 -15 19 -50q-37 -6 -37 -47q0 -33 28 -47q-15 -14 -32 -39q-15 -29 -19 -41t-8 -28l-82 -527q15 -37 70 -37q19 0 34 9q11 6 17 32v269q0 8 -8 24l-19 19q36 9 58 37q19 24 22 65q0 56 6 80q7 -22 13 -74q6 -51 24 -69q18 -12 31 -25 q12 -6 33 -12q-15 -6 -21 -23l-4 -28v-322q0 -10 4 -16q1 -2 3 -5.5t3 -5.5q3 -3 21 -12l-47 -22l-31 -23l-49 10h-25q-17 0 -61 -6q-9 -1 -21 -1.5t-19 -1t-11 -1.5q-35 0 -84 8q-13 2 -27.5 4.5t-21 3.5t-9.5 2q-11 0 -26 -6q-12 -6 -27 -12q-6 19 -27 25q-6 2 -30 8 l20 80q7 48 10 55q0 16 11 78l41 299q4 14 16 76q6 27 6 67q0 23 -2 31q0 9 -18 47q18 0 32 14q12 15 15 37q0 43 -35 57q3 4 9 11.5t9 11.5q4 7 21 35q11 19 20 67q10 48 11 50l69 360q12 27 12 53q0 73 -77 76q-18 0 -35 -14q-14 -11 -23 -39v-225q0 -22 13 -54l18 -28 q-19 -6 -35 -17q-15 -6 -29 -39q-7 -25 -14 -69q-3 -42 -8 -56q0 29 -4 62q0 48 -19 67q-16 19 -32 27q-22 9 -31 16z" />
<glyph unicode="a" horiz-adv-x="540" d="M0 27l4 67l6 62q0 -5 4 -9q3 -27 13 -51q6 -20 18 -20q18 0 27 182q4 242 4 246q0 12 -13 28q-15 20 -16 21q12 0 23 8q9 6 12 23q0 11 -29 30v2q-2 1 -4 5q23 8 27 10q15 22 18 37l47 417v31l23 12q4 4 10 7q2 1 6.5 4.5t7.5 5.5q6 0 25 -8q24 -4 33 -4q31 0 61 12 l21 -12l26 -11v-26l41 -410q0 -18 15 -39q15 -24 28 -37q-19 -5 -22 -26q0 -16 8 -29q4 -6 20 -10q-3 -6 -8.5 -18t-7.5 -15q-2 -7 -3.5 -16t-2.5 -11q9 -174 18 -319q3 -94 17 -94q3 0 14 37l10 45l29 -123l-27 -11q-2 -2 -6 -5t-6 -5q-6 -6 -12 -10l-17 14q-12 9 -47 9 q-9 0 -18 -3h-12l-23 -4q-3 0 -12 -6q-2 -4 -8 -10q-6 3 -15 12q-5 5 -14 8l-25 9l-16 118q1 -2 4.5 -13.5t7.5 -18.5q3 -5 6.5 -13t5.5 -10q3 0 7 2q1 2 4 45v103q0 24 -19 37q-16 11 -47 14q-31 0 -49 -6q-11 -2 -14 -23l-11 -174q0 -16 11 -16q2 0 6 4q0 1 10 33 q9 36 14 45l5 -129l-27 -11q-4 0 -10 -6q-1 -2 -13 -10q-27 12 -47 16q-18 0 -26 -4q-2 -2 -9 -5.5t-12 -6.5q0 2 -4 6q-2 2 -8 5.5t-8 4.5zM180 436q0 -30 15 -39q8 -2 28 -6q15 0 27 6t12 41q0 19 -8 43q-5 19 -25 68q10 5 13 8q6 5 8 18q0 27 -21 39q2 49 13 125 q0 39 -4 49l-15 66q0 -13 -10 -51q-4 -50 -4 -62q0 -71 10 -127q-15 -15 -18 -32q0 -17 14 -31q-18 -40 -29 -68q-6 -24 -6 -47z" />
<glyph unicode="b" horiz-adv-x="497" d="M8 29l21 131q4 -43 6 -49q0 -17 18 -21q2 0 8 35q0 45 2 80q0 65 -2 104v129v29q-4 22 -8 37q-7 25 -26 37q26 9 26 32q0 11 -6 17q-3 6 -20 16q2 1 5 2l6 2t7 2q2 2 6 6.5t6 6.5q4 12 4 34q0 68 2 138q0 103 3 149v23q0 88 -9 88q-6 0 -12 -33t-10 -37l-23 129 q17 0 33 8q15 9 27 21q9 -9 20 -12q3 -1 33 -5l147 15q-8 -1 -25 -2t-24 -2q-7 0 -39 -4l88 10q30 0 101 -15q68 -15 92 -122v-351q-3 -21 -16 -47q-14 -22 -64 -51q33 -19 49 -33q28 -18 33 -55v-338q0 -17 -21 -61q-3 -4 -6.5 -10t-5.5 -9t-4.5 -6t-4 -4.5t-3.5 -1.5 q-36 -23 -53 -31q-24 -11 -66 -14q-8 0 -24 4l-123 12h-19q-29 0 -39 -2q-8 0 -28 -10q-9 9 -11 12q-4 4 -18 11q-2 1 -33 6zM211 119q0 -23 14 -43q17 -17 35 -17q22 0 37 9q12 5 22 28l-2 396q-12 29 -61 32q-17 0 -29 -12q-10 -8 -14 -29zM213 659q0 -26 14 -43 q13 -13 39 -16q40 0 49 39v397q-12 31 -51 31q-32 0 -51 -29v-379z" />
<glyph unicode="c" horiz-adv-x="423" d="M2 532q13 0 31 9q14 8 8 28q0 3 -1.5 5.5t-4.5 6.5t-4 7q-5 7 -25 10q0 1 19 14q18 14 18 52q0 14 -2 18v301q0 82 55 123q56 39 103 39q29 0 43 -4q45 -15 55 -19l20 2l19 6l22 -16l25 -10q-6 -12 -6 -23q0 -14 -2 -32v-68v-104v-35l6 -13l10 -12q-12 -4 -18 -8 q-14 -5 -23 -14q-11 -8 -20 -43q-2 -11 -4 -29.5t-4 -22.5q-1 4 -11 62q-6 34 -18 37q-15 10 -19 12q-2 2 -18 10q0 1 4.5 6t9.5 9q0 8 2 14v186q-9 25 -41 25q-23 0 -34 -17q-14 -16 -11 -38l2 -338l9 -37q2 -7 18 -29q-19 -8 -22 -33q0 -29 22 -37q-3 -9 -12 -18 q-5 -15 -10 -25q-5 -11 -9 -32v-340q0 -22 15 -37q11 -11 32 -14q33 0 41 28v199l-2 18l-10 19q32 10 39 28q5 9 12 48q0 25 8 53q1 -4 3 -20.5t4 -28.5q7 -36 10 -43q5 -10 18 -23q10 -7 33 -14l-6 -15l-2 -16v-49v-23v-16q0 -49 -4 -107q-9 -39 -21 -51q-6 -12 -30 -30 q-20 -15 -43 -21q-33 0 -62 -2q-91 0 -121 27q-32 29 -57 100v317q-1 -3 -3 -9.5t-4 -11.5t-5 -9q0 14 2 26q1 5 2 17t2 18q0 26 -8 39q-6 15 -25 18z" />
<glyph unicode="d" horiz-adv-x="528" d="M2 27l12 135q7 -46 13 -68q5 -10 18 -10q10 0 10 39v344q0 12 -2 18q0 9 -6 19q-3 11 -10 22q-11 11 -17 21q21 14 21 35q0 12 -8 16q-3 8 -13 18q9 8 21 23q4 9 8 31q2 6 3.5 14t2.5 10v80q0 59 2 98v33q0 53 -2 88q0 52 -8 68q-3 -15 -12 -33q-2 -9 -4.5 -20.5 t-3.5 -14.5l-25 127q20 0 39 8q4 3 9.5 9t8.5 8q3 -1 15.5 -5t19.5 -7q10 0 35 -5q7 0 16.5 1.5t24.5 4t27 3.5q58 8 65 8q68 0 92 -8q21 -5 52 -27q32 -22 45 -45q12 -18 24 -59v-322q0 -13 6 -37q5 -15 17 -31q-21 -12 -21 -36q0 -11 4 -19q2 -3 7.5 -9t9.5 -11 q-2 -2 -6 -8t-7 -9l-4 -16q-3 -11 -6 -37v-317q0 -66 -41 -101q-38 -38 -80 -47q-41 -3 -61 -6q-19 0 -31 -2q-22 0 -65 6q-11 1 -24.5 3t-21 3t-12.5 2h-20q-12 0 -33 -6q-5 -1 -15.5 -3t-15.5 -3q-13 13 -26 16zM199 135v-7q0 -24 18 -42q23 -23 53 -23q14 0 27 13 q11 10 14 28l2 373q0 2 -0.5 4.5t-1.5 6.5l-2 8q0 11 -8 22q-8 16 -22 23q26 0 32 28q4 21 -8 27q-6 9 -20 12q7 7 22 37q8 19 8 31l-2 352q0 21 -12 33q-7 12 -29 16q-4 1 -9 1q-19 0 -36 -11q-17 -14 -20 -39l2 -360q0 -8 6 -29q5 -15 23 -33q-27 0 -33 -22q-3 -13 6 -29 q6 -8 24 -12q-14 -11 -24 -31q-1 -4 -3 -13.5t-3 -13.5q0 -14 -2 -28z" />
<glyph unicode="e" horiz-adv-x="456" d="M0 18l2 60q0 7 4 47q8 38 10 41l4 -66q0 -10 15 -14q13 0 16 16v353q0 34 -8 53q-16 24 -27 33q18 5 21 30q0 22 -21 31q13 10 25 35q8 21 8 49v344q0 17 -14 17q-15 0 -15 -15l-2 -59l-12 59v39q0 7 -6 41q8 0 16 2q17 8 19 10q12 3 18 21q9 -3 27 -12q25 -5 41 -5 q23 0 53 9q50 8 57 8q29 0 56 -8q10 -2 21 -4t17.5 -3.5t10.5 -1.5q12 0 14 2q6 3 27 15q0 -10 14 -21q13 -10 29 -10q-10 -20 -10 -24l-4 -29v-189q4 -24 4 -26q8 -14 12 -25q-38 -17 -45 -41q-5 -31 -10 -47q-3 -28 -13 -41l-12 80q-3 15 -20 29q-9 9 -37 16l12 23l4 24 v146q0 18 -8 34q-7 14 -31 21q-21 3 -39 -12q-16 -13 -16 -37v-359q1 -4 4 -13t4 -13q3 -13 23 -13q11 0 16 5q3 3 6 22q5 9 -8 25q-8 13 -8 26q6 36 43 39q0 -26 6 -35l22 -22q18 -15 21 -35q0 -33 -29 -49l39 -27l-39 -26q12 -18 17 -23q12 -15 12 -24q0 -16 -29 -48 q-31 -28 -31 -32q0 -9 9 -27l-23 10q-17 7 -20 29q0 13 10 31q12 21 12 32q-6 31 -26 31q-11 0 -25 -14q-13 -11 -6 -33v-381q12 -23 53 -26q24 0 35 16q9 12 12 43v143l-4 31q0 13 -10 31q8 2 29 10q9 6 20 20q4 6 12 35q0 14 11 56q2 -14 6 -50q1 -9 4 -23t4 -18 q2 -10 20 -24q22 -9 29 -14q0 -5 -6 -11q-4 -8 -8 -14q-2 -6 -2 -25v-223l6 -14l6 -15l-25 -8l-22 -12q-3 0 -23 4t-28 4q-6 0 -52 -4q-36 -4 -49 -4q-5 0 -55 4q-36 4 -47 4h-19l-51 -8q-22 11 -26 14z" />
<glyph unicode="f" horiz-adv-x="456" d="M0 18l2 60q0 7 4 47q8 38 10 41l4 -66q0 -10 15 -14q13 0 16 16v353q0 34 -8 53q-16 24 -27 33q18 5 21 30q0 22 -21 31q13 10 25 35q8 21 8 49v344q0 17 -14 17q-15 0 -15 -15l-2 -59l-12 59v39q0 7 -6 41q8 0 16 2q17 8 19 10q12 3 18 21q9 -3 27 -12q25 -5 41 -5 q23 0 53 9q50 8 57 8q29 0 56 -8q10 -2 21 -4t17.5 -3.5t10.5 -1.5q12 0 14 2q6 3 27 15q0 -10 14 -21q13 -10 29 -10q-10 -20 -10 -24l-4 -29v-189q4 -24 4 -26q8 -14 12 -25q-38 -17 -45 -41q-5 -31 -10 -47q-3 -28 -13 -41l-12 80q-3 15 -20 29q-9 9 -37 16l12 23l4 24 v146q0 18 -8 34q-7 14 -31 21q-21 3 -39 -12q-16 -13 -16 -37v-359q1 -4 4 -13t4 -13q3 -13 23 -13q11 0 16 5q3 3 6 22q5 9 -8 25q-8 13 -8 26q6 36 43 39q0 -26 6 -35l22 -22q18 -15 21 -35q0 -33 -29 -49l39 -27l-39 -26q12 -18 17 -23q12 -15 12 -24q0 -16 -29 -48 q-31 -28 -31 -32q0 -9 9 -27l-23 10q-17 7 -20 29q0 13 10 31q12 21 12 32q-6 31 -26 31q-11 0 -25 -14q-13 -11 -6 -33v-381q0 -3 6 -6q4 -4 10 -4l15 20l6 52l26 -127q-13 0 -32 -11q-7 -5 -25 -16q-15 0 -55 4q-36 4 -54 4q-14 0 -22 -2q-11 0 -29 -6q-20 12 -26 14z" />
<glyph unicode="g" horiz-adv-x="518" d="M0 547q15 9 20 14q7 3 7 14q0 12 -7 19q-8 8 -20 8q6 6 10 12q8 16 10 21q10 16 11 20v19v373q8 10 17.5 24.5t12.5 18.5q9 15 35 34q16 9 47 17q36 4 66 4q29 0 63 -10q42 -9 47 -11q7 0 31 4q3 2 6.5 3t5.5 2t3 2q8 4 16 10q3 -2 11 -8.5t11 -8.5q4 -2 35 -6l-10 -22 q-4 -28 -4 -31v-197l10 -24l15 -17q-6 -2 -21 -14q-22 -11 -27 -16q-11 -19 -16 -49q-2 -8 -4 -26t-4 -24q0 44 -2 58q0 19 -15 43q-14 21 -41 33q1 3 2.5 5.5t4.5 5.5t4 5l6 27v122q0 29 -23 52q-19 22 -47 22q-32 0 -55 -20q-22 -19 -25 -49v-306q0 -26 11 -55 q10 -31 22 -45q-12 -2 -17.5 -9t-6.5 -24l4 -12q14 -7 18 -10q-3 -5 -8 -8q-1 -2 -4.5 -8.5t-5.5 -10.5q-4 -12 -4 -37v-358q-5 -19 8 -39q11 -16 33 -16q43 0 43 38v285q0 14 -9 17q-18 3 -18 -17l-6 -55l-17 63v47l-8 23q4 1 11 2t10 2q6 0 18 6q11 2 23 23q43 -17 75 -17 q30 0 70 15q5 -3 14.5 -9.5t14.5 -9.5q2 -1 32 -6q-4 -20 -4 -31l-4 -45l-18 -63l-6 55q0 23 -13 23q-4 0 -16 -8q-6 -10 -4 -17v-364l-14 -9q-9 -9 -11 -16q-30 7 -45 14q-6 1 -12 1q-21 0 -53 -7q-33 -8 -47 -8h-17q-49 0 -63 2l-45 18q-25 11 -43 29q-18 22 -23 31 q-3 4 -8.5 16.5t-9.5 18.5v370q-1 4 -3 12.5t-3 12.5q-3 9 -9 18q-3 10 -18 19z" />
<glyph unicode="h" horiz-adv-x="522" d="M0 27q0 27 2 43q2 9 4 24t2 17q1 5 1.5 10.5t1 9t1.5 6.5q0 13 6 23q7 -21 9 -45q5 -14 14 -25q3 0 6 8q0 9 2 17v309v70q0 6 -4 18q-3 6 -25 31q11 4 15 12q4 4 8 20q0 15 -23 35q2 6 11 25q2 5 5 14.5t5 14.5q4 20 4 26q1 3 1.5 6t1 8.5t1.5 10.5v334q0 12 -12 14 q-7 0 -10 -8l-11 -54l-8 56q-1 12 -4 35.5t-4 37.5l20 3q10 3 29 12q31 -6 70 -12q25 0 35 2q16 4 32 10q5 -2 13.5 -5t13.5 -5q3 -1 9 -2.5t9 -2.5h23l-12 -45l-21 -88l-10 54q0 9 -10 14q-4 0 -8 -4q-2 -5 0 -12v-381q0 -25 16 -47q19 -16 45 -19q23 0 45 19q17 14 20 47 v381q3 11 -10 14q-7 0 -10 -8l-10 -54l-8 56q-1 12 -4.5 35.5t-4.5 37.5l21 3q10 3 26 12q40 -12 72 -12q25 0 33 2q22 4 37 10q15 -9 24 -12q10 0 19 -3h22l-12 -45l-20 -88l-11 54q0 9 -10 14q-4 0 -8 -4q-2 -5 0 -12v-381q0 -13 2 -19q0 -9 6 -24q7 -13 21 -23 q-14 -11 -17 -29q0 -21 17 -32q-17 -8 -23 -19q-2 -4 -6 -37v-379q0 -11 12 -14q15 0 12 17l9 47l10 -66l14 -65l-24 -9q-6 -3 -14.5 -7.5t-12.5 -6.5q-47 8 -72 10q-20 0 -26 -4q-13 0 -37 -8q-12 8 -14 10q-4 4 -23 10q-17 7 -27 7q0 27 2 43q0 2 7 41q2 12 2 26 q0 10 8 23q6 -17 8 -45q0 -2 12 -25q3 0 6 8q0 9 2 17v377q-3 24 -12 30q-7 6 -10 17q-3 1 -12 2t-13 2q-3 1 -10 2t-10 2q-13 0 -39 -15q-17 -7 -20 -47v-379q0 -11 12 -14q15 0 12 17l8 47l13 -66l14 -65l-25 -9l-28 -14q-19 0 -35 4q-18 6 -35 6q-23 0 -31 -4 q-11 0 -35 -8q-5 3 -14 9t-14 9q-21 9 -35 9z" />
<glyph unicode="i" horiz-adv-x="247" d="M0 27q0 27 2 43q2 9 4 24t2 17q1 5 1.5 10.5t1 9t1.5 6.5q0 13 6 23q7 -21 9 -45q5 -14 14 -25q3 0 6 8q0 9 2 17v309v70q0 6 -4 18q-3 6 -25 31q11 4 15 12q4 4 8 20q0 15 -23 35q2 6 11 25q2 5 5 14.5t5 14.5q4 20 4 26q1 3 1.5 6t1 8.5t1.5 10.5v334q0 12 -12 14 q-7 0 -10 -8l-11 -54l-8 56q-1 12 -4 35.5t-4 37.5l20 3q10 3 29 12q31 -6 70 -12q25 0 35 2q16 4 32 10q5 -2 13.5 -5t13.5 -5q3 -1 9 -2.5t9 -2.5h23l-12 -45l-21 -88l-10 54q0 9 -10 14q-8 0 -8 -16v-344v-27q0 -19 2 -29q3 -13 8 -24q3 -2 16 -15q-20 -6 -20 -35 q0 -23 20 -32q-17 -24 -22 -41q-4 -24 -4 -35v-29v-332q0 -11 12 -14q15 0 12 17l8 47l13 -66l14 -65l-25 -9l-28 -14q-19 0 -35 4q-18 6 -35 6q-23 0 -31 -4q-11 0 -35 -8q-5 3 -14 9t-14 9q-21 9 -35 9z" />
<glyph unicode="j" horiz-adv-x="428" d="M0 336q22 11 41 33q12 18 12 37v22q0 11 8 39q6 -15 9 -51q0 -32 16 -51q13 -16 43 -29l-14 -21l-4 -26v-178q0 -15 8 -35q12 -8 43 -8q19 0 24 10q6 12 9 37v309v70q0 8 -7 18q-7 14 -22 31q8 4 14 12q2 2 6 20q0 18 -20 35q4 18 10 25q4 11 8 29q2 10 6 26q2 5 5 25 v334q0 11 -13 14q-7 0 -10 -8l-10 -54l-6 56q-1 12 -4.5 35.5t-4.5 37.5l19 3q10 3 29 12q38 -12 71 -12q23 0 31 2q22 4 37 10q13 -7 26 -12q11 0 17 -3h22l-12 -45l-18 -88q0 15 -4 27q-1 4 -3.5 12.5t-3.5 12.5q0 9 -10 16q-10 0 -10 -16v-344v-27q0 -19 4 -29 q3 -13 8 -24q9 -9 17 -15q-23 -7 -23 -35q0 -22 23 -32q-17 -20 -23 -41q-6 -18 -6 -35v-29v-332q0 -26 -13.5 -43.5t-45.5 -35.5q-55 -24 -119 -27q-58 0 -103 31q-38 28 -41 65v170q0 25 -2 35q-5 19 -14 35z" />
<glyph unicode="k" horiz-adv-x="524" d="M0 27q0 27 2 43q2 9 4 24t2 17q1 5 1.5 10.5t1 9t1.5 6.5q0 13 6 23q7 -21 9 -45q5 -14 14 -25q3 0 6 8q0 9 2 17v309v70q0 6 -4 18q-3 6 -25 31q11 4 15 12q4 4 8 20q0 15 -23 35q2 6 11 25q2 5 5 14.5t5 14.5q4 20 4 26q1 3 1.5 6t1 8.5t1.5 10.5v334q0 12 -12 14 q-7 0 -10 -8l-11 -54l-8 56q-1 12 -4 35.5t-4 37.5l20 3q10 3 29 12q31 -6 70 -12q25 0 35 2q16 4 32 10q5 -2 13.5 -5t13.5 -5q3 -1 9 -2.5t9 -2.5h23l-12 -45l-21 -88l-10 54q0 9 -10 14q-8 0 -8 -16v-392l126 371q1 5 3 13.5t2 11.5t-7 6q-11 0 -16 -10l-27 -56l29 137 q18 0 33 3q14 0 29 12q24 -8 38 -12q20 0 41 12l23 -10l27 -2l-54 -142l6 49v9l-4 8q-13 3 -16 -10l-94 -281q0 -31 -2 -41v-25q1 -2 10 -24q2 -4 6.5 -14.5t7.5 -16.5q4 -10 27 -33q-8 -15 -16 -18q-1 -3 -3.5 -9.5t-3.5 -9.5q0 -34 33 -43q-20 -14 -20 -47q0 -16 2 -24 q0 -17 4 -27l61 -344l11 -12q16 0 8 14l6 47l31 -119l-21 -6q-6 0 -20 -14q-10 0 -31 6q-3 1 -37 8q-26 0 -61 -14q-18 11 -31 16l-23 4l-16 123l20 -53q2 -2 7 -4t8 -4q11 3 8 18l-70 404q-13 -13 -22 -31q-12 -24 -12 -35v-332q0 -16 10 -18q7 0 10 6v15l4 47q0 -17 6 -35 q5 -22 8 -33l11 -65q-9 0 -23 -7q-9 -3 -20 -14q-55 9 -70 10q-23 0 -31 -4q-11 0 -35 -8q-5 3 -14 9t-14 9q-21 9 -35 9z" />
<glyph unicode="l" horiz-adv-x="462" d="M0 27q0 27 2 43q2 9 4 24t2 17q1 5 1.5 10.5t1 9t1.5 6.5q0 13 6 23q7 -21 9 -45q5 -14 14 -25q3 0 6 8q0 9 2 17v309v70q0 6 -4 18q-3 6 -25 31q11 4 15 12q4 4 8 20q0 15 -23 35q2 6 11 25q2 5 5 14.5t5 14.5q4 20 4 26q1 3 1.5 6t1 8.5t1.5 10.5v334q0 11 -12 14 q-7 0 -10 -8l-11 -54l-8 56q-1 12 -4 35.5t-4 37.5l20 3q10 3 29 12q34 -12 70 -12q25 0 35 2q16 4 32 10q18 -9 27 -12q9 0 18 -3h23l-12 -45l-21 -88q0 15 -4 27q-1 4 -3 12.5t-3 12.5q0 11 -10 16q-8 0 -8 -16v-344v-27q0 -19 2 -29q3 -13 8 -24q3 -2 16 -15 q-20 -6 -20 -35q0 -23 20 -32q-17 -24 -22 -41q-4 -24 -4 -35v-29v-332q0 -22 22 -30q21 -8 55 -8q18 0 31 10q12 12 21 33v145l-5 31q-3 10 -14 26q9 3 19 13t20 18q9 15 12 47q3 40 11 53q0 -16 4 -45q7 -41 18 -55q17 -20 41 -29l-8 -30l-10 -31v-148v-24q0 -15 6 -27 q6 -9 8 -20q2 -2 3.5 -4t3.5 -5.5t3 -5.5l-31 -8q-27 -9 -32 -12q-8 2 -17 4.5t-13 3.5t-5 2q-12 0 -39 -10q-19 -8 -27 -8q-11 0 -14 8q-3 1 -49 10q-8 2 -43 2q-46 0 -96 -12q-23 13 -39 20q-21 7 -29 7z" />
<glyph unicode="m" horiz-adv-x="706" d="M0 27q0 27 2 41q2 9 4 23.5t2 17.5q1 5 1.5 10.5t1 9t1.5 6.5q0 13 6 23q7 -13 9 -43q7 -18 14 -27q3 0 6 8q0 9 2 19v307v70q0 6 -4 18q-3 6 -25 31q9 3 15 12q4 4 8 20q0 15 -23 35q1 4 2.5 8t4.5 9.5t4 9.5q2 5 5 14.5t5 14.5q4 20 4 24q1 3 1.5 6t1 8.5t1.5 10.5v334 q0 14 -12 14q-7 0 -10 -8l-11 -52l-8 56q-1 11 -4 34.5t-4 36.5l31 5q12 0 18 6l12 6q1 0 13 -3l20 -5q10 -4 35 -4q33 0 76 12l28 -12l37 -7l60 -434l55 438l39 3q6 0 18 6q12 3 15 6q37 -12 78 -12q23 0 43 4q19 8 26 8q12 -12 25 -15q3 -1 14 -2.5t21 -3.5l-19 -133 l-10 41v10q-4 11 -10 11q-2 -3 -4 -9v-12v-366q0 -21 4 -35q5 -5 11.5 -14.5t10.5 -12.5q-19 -5 -22 -29q0 -5 10 -18q15 -9 16 -10q-17 -20 -20 -29q-3 -10 -6 -26q-4 -20 -4 -27v-367q-5 -15 12 -18q18 0 12 18l8 62l25 -133q-6 0 -16 -7q-8 -4 -13 -4l-22 -16 q-37 12 -74 12q-25 0 -39 -4q-7 -1 -20.5 -4t-16.5 -4l-31 14l-36 13l22 133l8 -68q0 -7 17 -10q4 6 12 20v185v67v21q0 90 -12 137q-5 19 -15 35q18 9 15 35q0 14 -19 20q14 50 19 76q6 27 6 65q0 43 -4 74q-2 29 -2 57q-1 -5 -19 -67q-4 -28 -6 -64q0 -42 -2 -69 q0 -54 -2 -72q-18 -6 -20 -22q0 -27 24 -33q-2 -4 -7.5 -14.5t-8.5 -14.5q-7 -17 -15 -57q-3 -35 -10 -72q-4 -32 -4 -57l-35 -307l-45 -25l-39 27q0 79 -18 198q-19 124 -29 172q-14 91 -18 101q-2 8 -5 23t-5 22q8 11 8 37q0 17 -21 26q0 9 4 41q-4 65 -14 141 q-10 91 -12 91t-4 -7q0 -8 4 -14v-156v-30q0 -17 2 -27q3 -15 14 -37q-7 -11 -10 -28q0 -19 12 -37l-10 -25l-4 -20q0 -17 -4 -27v-33v-336q0 -17 12 -20q15 0 12 18l4 58l17 -68l10 -63q-7 0 -14 -7q-8 -4 -15 -4l-22 -16q-1 0 -9.5 3.5t-13.5 4.5q-4 1 -13.5 2t-14.5 2 q-17 0 -29 -6q-13 -2 -23 -6q-1 1 -4.5 3.5t-5.5 4.5t-10 5.5t-12 6.5q-6 1 -15.5 4t-11.5 3z" />
<glyph unicode="n" horiz-adv-x="450" d="M0 27q0 27 2 41q2 9 4 23.5t2 17.5q1 5 1.5 10.5t1 9t1.5 6.5q0 13 6 23q7 -13 9 -43q7 -18 14 -27q3 0 6 8q0 9 2 19v307v70q0 6 -4 18q-3 6 -25 31q9 3 15 12q4 4 8 20q0 19 -23 35q3 2 8.5 6.5t8.5 6.5q7 2 10 16q0 17 2 31v26v19v334q0 14 -12 14q-7 0 -10 -8 l-11 -52l-8 56q-1 11 -4 34.5t-4 36.5l31 5q12 0 18 6l12 6q15 -12 37 -12q20 0 41 12l23 -12q15 -6 33 -15l98 -522v446q0 15 -10 15q-8 0 -11 -13l-12 -43l-14 125l24 7q10 8 23 12q15 -12 41 -12q12 0 18 4q18 6 23 8q9 -9 20 -12q2 -2 7.5 -4.5t7.5 -4.5h12l-16 -123 l-11 43q-3 13 -12 13q-12 0 -6 -15v-348v-24q0 -13 2 -23q1 -5 4 -13t4 -11q10 -15 14 -19q-13 -8 -16 -33q0 -20 23 -30q-9 -9 -13 -11q-2 -2 -8 -32q-5 -38 -6 -41q-4 -8 -4 -19v-418q-19 0 -27 -4q-13 -3 -20 -10q-4 -4 -8 -6q-14 4 -21 12l-33 8q-5 28 -11 63 t-13.5 82.5t-12.5 76.5q-15 126 -26 178q-6 50 -21 74q-19 44 -20 47q12 9 12 34q0 8 -6 17q-2 2 -6 7t-6 7q3 12 6 21q2 6 2 18q-4 32 -4 55q-4 39 -8 52q-1 9 -5 28t-6 29q0 4 -4 8v-117v-41v-28q3 -9 6 -15t7 -10q-13 -16 -13 -31q0 -18 15 -36q-12 -24 -13 -27 q0 -13 -2 -27v-14v-367q0 -22 11 -22q13 0 8 18l4 58q4 -15 8 -41q0 -1 6 -41l4 -56l-24 -4q-11 -4 -15 -8q-6 -6 -12 -8q-15 12 -35 12q-12 0 -18 -6q-3 -1 -8.5 -3t-8.5 -3q-1 1 -4.5 3.5t-5.5 4.5t-10 5.5t-12 6.5q-6 1 -15.5 4t-11.5 3z" />
<glyph unicode="o" horiz-adv-x="477" d="M0 541q8 8 12 14q3 4 8 20q0 20 -20 31q11 9 18 25q6 19 9 37v360q0 6 16 37q14 34 35 53q27 21 69 27q34 -15 70 -15q31 0 68 15q12 -2 31 -8.5t20 -6.5q16 -2 37 -20q11 -11 26 -37q11 -22 11 -45v-338q0 -23 2 -31q0 -5 10 -22q10 -15 14 -19q2 -1 13 -12 q-13 -8 -15 -12q-7 0 -10 -12q-3 -30 22 -41q-18 -12 -26 -37q-10 -18 -10 -41v-19v-280q0 -32 -7 -53q-9 -30 -30 -60q-26 -36 -90 -51q-21 8 -27 12q-12 4 -31 4q-39 0 -63 -16q-47 3 -84 35q-24 22 -37 43q-11 16 -14 47v332v18q0 3 -7 31q-10 20 -20 35zM170 123 q0 -23 14 -37q17 -14 41 -14q19 0 31 10q14 14 14 33v295v49q0 24 -8 37q-1 5 -4.5 13t-3.5 9q-4 8 -16 23q2 6 14 18q8 12 8 21q0 20 -22 26q16 16 20 29q8 19 10 31q0 16 2 28v338q0 14 -14 31q-15 12 -33 12q-16 0 -37 -12q-16 -10 -16 -31v-330q0 -14 2 -26q0 -13 6 -31 q3 -13 19 -39q-17 -11 -19 -12q-4 -4 -8 -19q0 -25 27 -34q-9 -9 -13 -15q-1 -1 -2 -3t-3.5 -6.5t-4.5 -8.5q-4 -20 -4 -37v-348z" />
<glyph unicode="p" horiz-adv-x="442" d="M0 18l2 60q0 7 4 47q8 38 10 41l4 -66q0 -10 15 -14q13 0 16 16v353q0 34 -8 53q-16 24 -27 33q18 5 21 30q0 22 -21 31q13 10 25 35q8 21 8 49v344q0 17 -14 17q-15 0 -15 -15l-2 -59l-12 59v39q0 7 -6 41q8 0 16 2q17 8 19 10q12 3 18 21q9 -3 27 -12q25 -5 41 -5 q23 0 53 9q50 8 57 8q54 0 68 -4q17 -3 37 -13q24 -10 45 -43q25 -31 31 -61v-356q-10 -38 -21 -60q-4 -14 -22 -39q-15 -18 -39 -28q-18 -6 -76 -15q-55 -6 -64 -32q-6 -24 -6 -56v-338q0 -12 15 -12q10 0 10 14l8 64l10 -141l-28 -5q-21 -12 -29 -20q-10 2 -25 10 q-12 4 -20 4q-32 0 -64 -14q-8 8 -20 14q-14 4 -29 6q-10 0 -12 -2zM184 668v-7q0 -20 13 -36q15 -15 39 -15q17 0 32 21q10 25 8 37v344q3 9 3 16q0 15 -11 33q-13 13 -32 16q-21 0 -37 -16q-15 -19 -15 -37v-356z" />
<glyph unicode="q" horiz-adv-x="475" d="M0 541q8 8 12 14q3 4 8 20q0 20 -20 31q11 9 18 25q6 19 9 37v360q0 6 16 37q14 34 35 53q27 21 69 27q34 -15 70 -15q31 0 68 15q12 -2 31 -8.5t20 -6.5q16 -2 37 -20q11 -11 26 -37q11 -22 11 -45v-338q0 -23 2 -31q0 -5 10 -22q10 -15 14 -19q2 -1 13 -12 q-13 -8 -15 -12q-7 0 -10 -12q-3 -30 22 -41q-18 -12 -26 -37q-10 -18 -10 -41v-19v-280q0 -38 -9 -62q-6 -22 -14 -32q-1 -4 -18 -25q19 -5 39 -25q13 -13 20 -34q3 -16 10 -27q3 -5 19 -12q16 -12 22 -15q-10 -4 -30 -16q-10 -6 -31 -10q-18 0 -39 12q-15 9 -37 37 q-25 29 -41 39q-3 1 -31 8q-5 1 -14 2t-14 2q-25 0 -43 -4q-33 0 -37 -2q-47 3 -84 35q-24 22 -37 43q-11 16 -14 47v332v18q0 3 -7 31q-10 20 -20 35zM170 123q0 -23 14 -37q17 -14 41 -14q19 0 31 10q14 14 14 33v295v49q0 24 -8 37q-1 5 -4.5 13t-3.5 9q-4 8 -16 23 q2 6 14 18q8 12 8 21q0 20 -22 26q16 16 20 29q8 19 10 31q0 16 2 28v338q0 14 -14 31q-15 12 -33 12q-16 0 -37 -12q-16 -10 -16 -31v-330q0 -14 2 -26q0 -13 6 -31q3 -13 19 -39q-17 -11 -19 -12q-4 -4 -8 -19q0 -25 27 -34q-9 -9 -13 -15q-1 -1 -2 -3t-3.5 -6.5 t-4.5 -8.5q-4 -20 -4 -37v-348z" />
<glyph unicode="r" horiz-adv-x="452" d="M0 18l2 60q0 7 4 47q8 38 10 41l4 -66q0 -10 15 -14q13 0 16 16l-4 355v22q0 15 -6 33q-10 16 -25 29q18 5 21 30q0 22 -21 31q13 8 25 29q2 8 4 19.5t2 13.5v24v342q0 17 -12 17q-15 0 -15 -15l-2 -59l-12 59v39q0 25 -4 33q0 14 -2 18q18 0 33 6q14 3 20 17 q21 -5 29 -10q7 -1 19.5 -2.5t17.5 -2.5q20 2 57 7.5t55 7.5q34 0 50 -8q18 -6 34 -19q15 -5 39 -39q19 -34 21 -57v-360q-4 -26 -17 -46q-8 -19 -47 -47q2 -3 6 -6.5t10 -9t11 -10.5q24 -20 27 -23q14 -38 14 -78v-333q-3 -13 10 -13l6 15l6 47l23 -133q-14 0 -29 -9 q-10 -6 -20 -16q-9 6 -31 10q-12 0 -27 -6q-3 -1 -6.5 -2t-5 -1.5t-2.5 -0.5q-6 19 -20 27l-23 14v440q0 45 -49 45q-33 0 -41 -18q-3 -7 -8 -33v-360q0 -7 4 -15q4 -4 12 -4q7 0 10 13l7 59l22 -148q-19 0 -33 -2q-14 -14 -22 -18q-8 2 -29 10q-8 4 -29 4q-18 0 -22 -2 q-5 0 -29 -12q-7 11 -26 16zM162 657q0 -27 12 -45q14 -14 35 -14h8q11 0 29 18q12 15 12 39v359q0 20 -14 37q-10 12 -35 16q-14 0 -35 -14q-12 -9 -12 -29v-367z" />
<glyph unicode="s" horiz-adv-x="372" d="M0 350q16 3 23 8q4 2 22 19q5 6 12 43q0 29 6 53l6 -27t5 -24q3 -26 12 -41q5 -10 20 -19q15 -6 31 -14q-13 -15 -16 -22q0 -5 -4 -21l-2 -12v-135q0 -31 8 -62q9 -25 47 -22q30 0 41 20q12 18 12 58v18q0 21 -8 68q-3 46 -31 133q-21 77 -49 112q-19 28 -45 45q0 3 6 9 q0 8 2 16q0 6 -2 12q0 8 -10 15q-21 7 -27 10q1 1 7 16q2 12 2 29q-8 38 -52 211q-16 91 -16 137q0 33 10 64q7 33 39 61q29 18 45 25q31 5 64 12q20 0 47 -8q27 -9 45 -9q7 0 29 11q3 -15 18 -21l29 -6l-13 -31l-2 -41v-139q0 -23 2 -37q1 -6 5 -14.5t4 -9.5q10 -15 14 -19 q-19 0 -31 -12q-9 -6 -14 -18q-2 -4 -8 -50q-3 -43 -11 -51q0 1 -3.5 8t-4.5 13q0 23 -2 37q0 24 -2 32q0 11 -12 23q-9 9 -33 18q9 12 12 21q2 3 3.5 8t2.5 6l-2 39v104q-5 32 -10 48q-9 17 -47 20q-24 0 -35 -20q-10 -23 -10 -54q0 -39 4 -59q1 -7 4 -19.5t8 -33t9 -39.5 q11 -45 47 -137q34 -73 41 -80q17 -17 20 -21l-6 -18q-5 -8 -2 -21q0 -5 16 -10q9 0 17 -8q-3 -7 -5 -13.5t-4 -12.5t-2 -7q0 -2 2 -9t3 -13q26 -79 45 -170q18 -77 18 -132q0 -60 -37 -127q-37 -63 -117 -63q-13 0 -49 4q-8 1 -25.5 4t-25.5 4q-18 0 -24 -2q-3 -3 -8 -6.5 t-7 -5.5q-3 12 -10 20q-2 1 -5 4.5t-5 4.5q0 1 -19 8l13 26v31v160l-7 61q0 5 -10 17q-8 11 -8 20z" />
<glyph unicode="t" horiz-adv-x="503" d="M0 811l16 33q9 36 9 49v221q2 0 10 4q8 0 14 6q11 11 14 13q9 6 13 8q2 -1 5 -3.5t6 -4.5t7 -4q13 0 23 -5q15 5 22 5q20 10 23 12q40 -12 74 -12q24 0 34 2l12 3q11 3 21 7q21 -12 59 -12q20 0 37 12q9 -9 25 -17q2 -2 6.5 -5t5.5 -5q7 0 17 -4v-221q0 -26 8 -47l16 -33 l-10 -2.5t-9 -2.5t-5 -3q-9 0 -19 -21q-8 -17 -14 -49q0 -30 -6 -45q-2 2 -8 47q-6 46 -23 60q-11 11 -37 14q3 4 5 8t3 7.5t2 4.5l4 27v191q-3 17 -26 20q-27 0 -27 -20v-344v-27q0 -19 4 -29q0 -8 8 -24q9 -9 17 -15q-23 -7 -23 -35q0 -22 23 -32q-20 -23 -25 -41 q-4 -24 -4 -35v-29v-332q0 -11 15 -14q15 0 12 17l12 51l12 -68l11 -67l-25 -9q-22 -10 -29 -14q-48 8 -69 10q-23 0 -31 -4q-11 0 -35 -8q-12 8 -14 10q-16 8 -23 10q-17 7 -26 7q0 27 2 43q6 24 6 41q1 5 1.5 10.5t1 9t1.5 6.5q0 13 6 23q5 -8 8 -45q4 -11 15 -25q4 0 4 8 v17v309v70q0 12 -2 18q-6 11 -23 31q11 4 17 12q4 12 4 20q0 17 -21 35q0 7 10 17q5 7 11 24q4 12 4 23v41v198v131q0 11 -6 17q-3 3 -17 10q-16 -3 -22 -22v-193l4 -27l10 -20q-27 0 -41 -14q-16 -13 -22 -60q-2 -38 -7 -47q0 22 -6 49q-4 32 -14 47q-15 21 -41 27z" />
<glyph unicode="u" horiz-adv-x="456" d="M0 1116q18 0 31 8q11 6 18 21q34 -12 70 -12q25 0 35 2q16 4 32 10q12 -12 27 -15q12 -2 20 -2l-6 -47q-4 -40 -4 -53q0 -16 -6 -37l-8 58q0 11 -8 16q-8 0 -8 -16v-344v-27q0 -19 2 -29q3 -13 8 -24q3 -2 16 -15q-20 -6 -20 -35q0 -23 20 -32q-17 -24 -22 -41 q-4 -24 -4 -35v-29v-332q2 -11 18 -24q16 -8 22 -12q26 0 39 16q16 16 13 39v350l-4 29q-3 12 -11 20q0 8 -10 21q25 3 25 35q0 10 -9 16q-6 4 -16 14q12 7 19 21q2 4 6 33v18v358q0 8 -11 11q-2 0 -8 -13l-6 -45l-16 135l22 5q4 0 6 4q5 5 11 8q21 -12 53 -12q24 3 41 12 q8 -11 24 -17l27 -6l-16 -131l-13 45q4 11 -8 11l-6 -9v-364q0 -20 8 -39q7 -12 27 -25q-13 0 -21 -14q-10 -7 -4 -29q0 -3 13 -16q12 -6 12 -10q-14 -14 -17 -19q-7 -10 -10 -20l-8 -41v-328q0 -35 -16 -67q-22 -29 -43 -41q-29 -19 -39 -25q-22 12 -64 16q-12 0 -28 -4 q-15 -3 -33 -12q-16 3 -39 16q-27 20 -37 33q-5 5 -25 33q-8 20 -8 29v309v69q0 15 -2 19q-7 14 -24 33q5 0 18 10q4 12 4 20q0 21 -22 35q9 15 14 25q4 4 8 33q4 14 4 47v338q0 12 -8 14q-10 0 -10 -8l-4 -64q-7 26 -13 39q-4 20 -4 27q0 18 -6 30q-1 5 -4 14.5t-4 14.5z " />
<glyph unicode="v" horiz-adv-x="538" d="M0 1116l27 12l14 7q2 1 5.5 4.5t6.5 5.5q26 -13 33 -15q21 -6 39 -6q29 0 63 21q6 -3 15 -12q2 0 6.5 -3t7.5 -4l27 -8l16 -129l-16 45q-4 10 -6 13q0 4 -7 6q-8 0 -8 -15v-30l23 -328q0 -19 4 -29q1 -3 4 -10t4 -10l21 -37q-5 -6 -9 -16q-1 -4 -3 -12.5t-3 -12.5 q0 -18 17 -35q-1 -2 -4.5 -9.5t-4.5 -12.5v-23l11 -149l14 149l-2 23q0 8 -12 22q0 4 10 17l10 20q0 28 -16 41q12 20 22 35q6 21 6 37v18l33 311q5 30 6 35v10q0 5 -2 7q-3 3 -8 0q-6 0 -12 -11l-17 -49l2 133l27 8l10 5q10 5 15 10q2 -1 18 -7t25 -8q7 0 15.5 1.5 t10.5 1.5q20 10 25 12q0 -4 4 -8q1 -1 3 -2t3.5 -1.5t3.5 -1.5l4 -2l29 -10q0 -1 -3 -15.5t-5 -25.5q-4 -16 -4 -26l-10 -66q-1 0 -2 2t-2 7t-3 10q-3 17 -6 22q0 7 -6 16q-5 0 -8 3q-1 0 -6 -5q0 -5 -6 -32q0 -56 -5 -90q-20 -226 -22 -250q0 -6 6 -15l6 -12q0 -19 10 -31 q12 -12 21 -18q-17 0 -27 -6q-7 -7 -10 -25q0 -15 31 -31v-4q2 0 4 -2q-4 -2 -14.5 -5t-14.5 -5q-3 -4 -9 -10t-9 -10q-5 -7 -8 -17l-41 -418l-2 -30l-19 -13q-1 -1 -5 -2.5t-7 -3.5l-5 -4q-5 -4 -7 -8q-4 0 -25 6q-5 2 -33 8q-33 0 -61 -14l-23 14l-22 13v26l-39 408 q0 14 -8 22q-3 4 -8.5 12.5t-8.5 12.5q-5 12 -22 29q19 3 22 28q0 11 -8 27q-8 8 -20 10q4 3 24 23q0 5 6 20q4 16 4 19l-22 331q-3 34 -8 43q-2 4 -13 15l-8 4q-2 0 -8 -19l-8 -49z" />
<glyph unicode="w" horiz-adv-x="704" d="M0 1122q11 0 27 4q12 3 24 11q8 8 10 8q30 -12 64 -12q5 0 29 4q10 5 28 8q19 -9 29 -12l31 -5l-15 -143l-6 47q-3 18 -12 21q-3 0 -10 -23l18 -381l8 -33l6 -20q-10 -8 -14 -27q0 -24 16 -37q-3 -30 -6 -45q0 -24 4 -38q1 -5 3.5 -15.5t3.5 -15.5q2 6 4 18t4 17v36 q0 15 -2 23q0 14 -2 20q14 8 14 35q0 21 -14 29l10 20l8 33l29 389q0 13 -4 13q-7 0 -11 -4q-3 -3 0 -9l-12 -55l-2 150l27 2l22 10q17 -6 60 -10q3 0 6 0.5t8.5 1.5t11.5 2q23 5 27 6q7 -2 16 -5.5t11 -4.5l26 -2l-14 -140l-8 47q0 18 -13 21q-3 0 -10 -23l21 -381l6 -32 l8 -21q-12 -12 -14 -26q0 -24 16 -37q-2 -10 -3.5 -25t-2.5 -18q0 -27 2 -41q2 -5 4 -15.5t4 -15.5q3 25 6 37q0 19 2 35q0 14 -2 20q0 15 -4 23q11 6 14 34q0 19 -12 29l10 21l9 32l28 390q0 12 -4 12q-3 -3 -6 -7t-4 -5l-14 -56l-9 142l33 2q8 0 23 10q13 -5 49 -10 q22 0 39 10q8 -13 24 -17l25 -4l-29 -133l-10 37q0 9 -8 14q-3 0 -6 -8q0 -8 -4 -12l-35 -373q0 -10 4 -14q0 -5 6 -17q1 -2 4.5 -8t5.5 -8q-21 0 -24 -33q0 -7 6 -16q6 -3 14 -14q-3 -4 -7.5 -11.5t-6.5 -9.5q-5 -8 -10 -20q-7 -28 -9 -37q0 -21 -4 -33l-33 -399l-20 -15 l-12 -14q-22 10 -39 12q-10 0 -19 -6q-6 0 -18 -6l-25 16l-22 13v149l-17 205l-14 121q0 14 -10 14q-14 0 -10 -14l-15 -123l-14 -203v-145q-13 -3 -25 -15t-16 -18q-21 12 -45 12q-20 0 -41 -12q-3 8 -16 18q-12 9 -21 9l-29 393v26q0 30 -16 66q-6 7 -13.5 18t-8.5 13 q16 6 16 35q0 6 -6 12q-1 0 -6 4.5t-9 9.5q9 18 15 27l6 31l-27 387q6 11 -6 14q-4 -2 -8 -10l-10 -68z" />
<glyph unicode="x" horiz-adv-x="528" d="M0 29l35 125v-29q0 -19 -2 -25q0 -10 14 -10q6 0 6 6q1 2 3 6.5t3 6.5l95 362q4 20 4 23q0 14 -4 24q0 8 -15 23q17 10 17 30q0 11 -11 19q-14 10 -16 12q11 16 14 29v26q0 17 -2 17l-75 368q0 15 -11 15q-2 -2 -6 -10v-56l-49 133l23 9q8 4 20 12q35 -12 76 -12h33 q25 10 32 12q16 -13 27 -15q4 -1 12.5 -3t12.5 -3h28l-2 -125l-18 43q0 12 -15 15q-6 0 -6 -13q0 -10 2 -14l39 -203q0 -10 4 -18q2 -2 8 0l7 16l53 222q0 12 -6 12q-8 0 -8 -10l-19 -58l-4 135l37 4q18 3 33 15q18 -12 45 -12q22 0 43 12q15 -15 16 -15q6 -2 14 -6 q9 0 13 -2l-43 -133v49q3 8 -4 15q-12 3 -15 -11l-102 -368v-10v-7q0 -18 4 -30q9 -22 16 -29q-7 -4 -10 -31q0 -8 8 -16q10 -3 17 -10q-10 -7 -17 -21l-4 -28l76 -394q1 -12 5.5 -17t10.5 -3q8 12 9 14l-2 62l51 -131q-12 0 -33 -7q-2 -2 -10 -8t-11 -8q-29 13 -69 16 q-12 0 -33 -6q-5 -2 -16 -5t-17 -5q-17 10 -22 12l-29 4l-18 138l24 -56q3 -11 6.5 -15t10.5 -3q6 0 6 16l-51 260q-5 16 -11 19q-3 0 -6 -6q0 -5 -4 -9l-57 -251q-1 -3 -3 -9.5t-3 -9.5q0 -3 8 -6q8 0 8 14l20 56l-2 -138q-14 0 -22 -2q-15 -4 -33 -14q-17 12 -49 16 q-27 0 -43 -16l-23 18z" />
<glyph unicode="y" horiz-adv-x="530" d="M0 1128l23 5q6 0 14 4t14 8l70 -12l69 12q11 -11 33 -17h23q14 0 16 2l-6 -139l-18 58q0 5 -13 8q-3 0 -8 -8q0 -7 -2 -11l68 -346l67 350q3 5 0 13q-6 6 -10 6t-8 -4q-1 -1 -2.5 -3.5t-3.5 -4.5l-19 -58l-2 139q6 -2 17 -2q12 0 22 5q18 7 25 12q18 -12 51 -12 q10 0 18 4q19 5 27 8q3 -6 18 -12l19 -7l-25 -135l-6 49v9l-6 6q-2 -3 -8 -13l-62 -284q-4 -15 -10 -38.5t-8 -29.5v-39q3 -28 14 -49q-29 -6 -29 -35q0 -25 17 -35q-15 -16 -23 -28q-2 -4 -5.5 -14.5t-6.5 -18.5q-6 -22 -8 -27l2 -358q0 -12 16 -12q8 8 11 8l8 61l24 -127 l-28 -2q-8 0 -19 -8q-12 -3 -18 -6q-24 6 -72 10q-22 0 -49 -6l-14 -2l-10.5 -1.5t-4.5 -0.5q-8 6 -20 12q-8 4 -15 4q-2 1 -6.5 2t-7.5 2l17 123l12 -47q0 -10 8 -10q4 0 4 6q4 8 6 10v328q0 18 -6 33q-4 16 -10 24q-3 17 -8 19l-4.5 4.5t-10 9.5t-12.5 12q29 13 23 46 q-6 23 -37 26q6 18 8 23q1 4 3 13t3 13q1 5 2 14t2 13q0 7 -4 31q-2 7 -5 20.5t-5 20.5l-56 290q3 3 -2 11q-3 5 -8 8l-10 -10v-60z" />
<glyph unicode="z" horiz-adv-x="407" d="M-2 817l8 23v22v185l-4 43l-2 26q8 0 16 2q6 6 15 6q16 9 28 21l5 -3q6 -3 8 -7q2 -1 8 -2.5t8 -2.5q5 0 45 7q27 8 49 8q27 0 58 -8q10 -2 19 -4t14.5 -3.5t7.5 -1.5q11 0 18 5q10 10 14 12q4 -9 17 -17l24 -10l-12 -28q-2 -3 -6 -21q-1 -3 -2 -10.5t-2 -11.5l-53 -297 q-9 -34 -9 -74v-33q1 -5 6 -17.5t7 -19.5q-25 -4 -25 -31q0 -22 21 -34q-17 -17 -23 -27q-13 -26 -14 -29q-4 -16 -4 -18l-60 -371q9 -24 49 -24q19 0 25 4t12 24v187q0 6 -6 18l-12 12q24 6 39 27q13 18 16 45q0 45 4 57q6 -23 8 -53q3 -33 17 -47q15 -9 24 -18 q15 -7 23 -9q-13 -6 -15 -16l-4 -20v-226q0 -4 4 -8q1 -2 2.5 -4t2.5 -4q1 0 2.5 -1.5t4.5 -4t5 -4.5l-31 -15l-22 -16l-35 6h-19q-21 0 -41 -4q-28 0 -36 -2q-21 0 -58 6q-35 6 -41 6q-12 0 -20 -4q-13 -6 -19 -8q-3 13 -16 16q-6 2 -14 4.5t-9 2.5l15 55q3 31 8 41 q0 12 8 51l27 211q5 15 10 53q4 14 4 47v23q0 8 -14 33q14 0 24 10q9 13 11 26q0 28 -25 37q2 3 6 8.5t6 8.5q1 4 17 26q10 26 14 47q2 7 3 15.5t1.5 12.5t1.5 5l47 254q11 22 11 37q0 51 -54 51q-13 0 -24 -8q-13 -8 -19 -29v-155q0 -11 8 -39l15 -21q-10 -3 -25 -10 q-9 -4 -20 -27q0 -2 -11 -49q-4 -36 -6 -39q0 20 -2 43q0 37 -10 47q-17 17 -25 21q-6 0 -22 8z" />
<glyph unicode="~" horiz-adv-x="1474" d="M0 0v313q39 10 55 17l23 4q118 36 123 37q36 10 104 43l66 35q22 5 35 12q13 6 38 26l41 -41v-16l-6 -6v-107l15 -92l12 -110l8 -92l-2 -23h-512zM0 985v653h1430v-1638h-437l2 92h-20l39 195q10 69 14 125q0 37 -4 51q-3 18 -6 33q-5 -12 -13.5 -30t-11.5 -24 q-8 -21 -22 -39q-11 -20 -62 -32q8 33 17 55l-6 23l12 4q7 19 23.5 63.5t23.5 61.5q11 33 16 61q0 24 -4 47q-1 8 -1.5 17.5t-1 15.5t-1.5 10q0 19 6 37l8 -61q7 -19 17 -33q-2 -6 -5 -17t-5 -16q8 -8 12 -16l-10 -15q6 -18 6 -28l-5 -20t-3 -13q13 39 22 57q0 13 4 21l2 43 l13 4l-2 28l-7 9l17 18l-2 16h-13l23 17q-1 -8 -2 -23.5t-2 -21.5q0 -11 8 -19l16 -8q-6 -8 -17 -23.5t-17 -23.5q-3 -6 -8.5 -17.5t-8.5 -17.5q-6 -12 -6 -20q0 -10 12 -19q17 -9 35 -22q11 -6 39 -25q21 -4 31 -6q16 0 31 -10q24 -8 53 -15q46 -7 76 -14q40 -6 79 -26 q0 46 2 71q0 39 5 70q0 34 -5 57q-3 25 -14 47q-6 21 -18 39q-7 14 -21 35q-4 10 -14 55q-6 42 -29 56l-30 12q-26 19 -35 24l-39 27q-4 6 -12 14q0 6 -9 9q-16 0 -24 -4l-4 -78v-29q0 -27 -2 -39q0 -18 -11 -37q-4 -6 -11 -18.5t-11 -18.5q-2 -11 -5 -26t-3 -17l-9 41 l17 25h-15v31v24q-4 0 -8 -2q-12 -16 -18 -26q-6 -9 0 -19l-17 21l9 10l-9 51l-24 51l16 2q0 23 -20 29q-11 0 -17 -4q-4 -2 -16 -17q-5 -10 -8 -38q0 -39 -8 -52q-4 -7 -27 -34q-16 -19 -41 -19h-35q-41 0 -78 6q0 -8 -2 -14q0 -8 -2 -14q-3 0 -16 16q-9 18 -21 18v23 q-7 10 -18 27t-16 24q-11 17 -21 43q-6 24 -20 27q-16 0 -25 -21q-8 -24 -10 -28q0 -6 -14 -23q-13 -13 -15 -22q0 -11 -2 -19q0 -26 -8 -37q-5 -7 -16 -10l-17 4q-16 -4 -41 -14q-15 -6 -45 -10q-30 0 -51 6q-19 6 -31 30h8l17 -14l18 -8h66q16 4 24 8q16 4 33 16 q19 13 31 43t12 72l-10 2l-6 -12l-13 2l-10 8l-12 4h-39l-31 -4q-14 0 -18 -4l-8 -10h-21v31q16 8 31 18l27 6h51h20v8h8l2 -6l9 6l-2 13l-15 2l-4 4h-28l-7 10l-6 -4l-4 4l-14 -2l-4 4l-8 6l6 12l-56 -8q-15 0 -28 -8q-3 -1 -9.5 -3t-9.5 -3l-2 -14l-2 -37l4 -13l-10 -10 l-4 8l-8 2l-2 -10l-2 -39q10 -25 14 -33q4 -24 8 -40l-12 6q-1 1 -10 22q-6 18 -9 39q0 20 -6 29q0 6 -18 6v18l10 7l-14 8v14l6 6q-2 1 -10 4.5t-11 5.5q-7 3 -12 17q-2 3 -6.5 13.5l-7.5 17.5q-6 18 -6 55h22l-2 6v12l21 2l-4 6l2 13l4 39l8 4v16l-4 8l-6 4l10 5v53l12 12 q11 4 33 8q-3 -2 -8 -6t-8 -6q-5 -3 0 -8l20 10l12 4q4 4 4 19l60 4l43 2l6 4l8 -4h62l14 -4l2 10h16l-4 4q8 6 29 20l33 13l20 2l10 2l-4 8h41l11 8h45l4 19l39 -2h12l-10 10l6 2v8q-14 7 -29 12q-28 0 -61 8q-43 7 -60 9l-4 -11l-4 13h-31l19 -4l-12 -11v-14h-27l-2 -6 l-4 -6h-25l-31 4l-26 4l-21 -4v8l-20 2l-6 8l16 13h12l-8 10l-2 6l8 2l2 16l-12 -2l-8 2l4 11l-8 4l4 6h10l8 8l2 19l15 4l-4 -4l16 4l8 -4l10 10l5 20h8l6 6l-10 13l-7 -9l-8 -2q-39 -12 -65 -26q-22 -11 -51 -43q-21 -21 -41 -51q-16 -32 -25 -58l-25 -18v-23 q-14 -12 -34 -28q-14 -10 -19 -29q-3 -18 -6 -35q-8 -12 -14 -18l10 -13v-12h-12q-9 -18 -19 -33l13 -14h-19l-10 -2l-4 -8l-6 8l-2 -25l-19 -2l-10 6l-12 3h-11l-6 -11l-6 8l-6 -6l-6 2l-12 -10h-11l-4 10l-2 -6l-6 -8l4 -4h-14l-2 8l-15 4l-6 4l-4 -6v-8l-8 -8l-4 -4v-13 l-6 -2l-4 -6l-9 -6l11 -6l-7 -6h-12l-2 8l-2 -6l-4 -6l-6 4l2 -8l-8 6l-2 -10l-6 -9zM76 1085l12 5l-4 12q-2 0 -8 -17zM326 1028l12 -4v-10l8 -6v-15l10 -10q0 4 6 16q6 8 23 17l4 -8l2 -13l-6 -8l12 -4q25 19 47 27q13 4 39 8q27 0 45 2l52 -6q64 0 127 8q81 7 124 16 q26 0 50 -6q23 -3 47 -12q20 -6 33 -25q12 -20 20 -32l18 18q-20 26 -30 47v27q0 -5 6 -8q5 0 8 -3l10 3l13 -15l14 -4l-2 43l6 8l12 -16q0 -8 4 -14q5 -5 11 -9v9l-9 49l13 -21q-1 4 -2 13t-2.5 18t-3.5 18q-3 28 -15 52q-11 30 -22 47q-8 22 -31 35l-2 -17l12 -2l2 -14 l-18 14l20 -53l-10 4v-8l4 -15l-8 9l-6 10l-2 -14q-3 3 -10 20q-18 6 -23 14l-12 27l10 6l-10 12l-2 23q-49 0 -78 -2q-36 0 -76 -6q-37 -3 -55 -11q-21 -7 -31 -12q-118 -10 -121 -10q-41 -3 -76 -27q-31 -19 -51 -47q-6 -8 -18.5 -24.5t-18.5 -24.5l-6 10l-12 -8l-23 -2 l-2 6l-6 -10l-14 -6l6 -6l-4 -6l-2 -15l-2 -12l2 -6v-15l-8 -4zM412 950q9 9 14 6q5 -5 2 -14q-2 -4 -10 -4v8zM518 616l45 -4l8 -4l4 -4h54l18 -2l27 -2l10 -4l18 4l29 6h14l56 4l30 8l27 5l-63 -31l-66 -6l-14 2l-58 -6l-65 6l-33 14l-27 2zM543 426l10 -2l2 -8l14 -10 l9 -7l-19 2l-4 7l-6 10zM571 47l50 84q6 12 26 29q30 25 33 28l10 -2l4 -4h51l7 6l61 -59q3 -3 15 -18.5t20 -24.5q3 -4 29 -43q-20 3 -25 8l-8 -12l-19 -4q-12 -6 -12 -23l-4 15l-12 -9l-4 -12l-9 -6h-96l-24 37v10l-23 16h-10l-29 -53q-15 9 -24 15q-7 3 -7 22zM573 397 l11 -4v-8l-6 4zM608 700v11l21 -4l-2 -11l-11 4h-8zM627 1004q3 -38 35 -41q13 0 18 10q4 16 8 24l12 4l-2 7h-61zM647 227q33 -17 64 -30q24 0 45 12q5 3 47 37q24 24 39 30l-43 -45q-24 -18 -47 -41h-62zM657 694h25l33 21l45 -4l-17 -19h-24l-6 6l-8 -2l-11 -8l-14 -4 l-21 2zM668 92l6 -12l6 4l12 -6q19 19 49 37q31 15 41 18l2 14l-22 23l-51 -27q-33 -22 -43 -30v-21zM698 6q12 5 29 25q12 18 12 51l9 6l6 2v10l-35 -20l-21 -23v-51zM717 977q8 0 24 8q11 7 19 21q-14 0 -29 -9q-11 -6 -14 -20zM721 897q3 -23 18 -53q11 -22 33 -41 q21 -14 39 -19q5 -1 13 -1.5t21 -1t23 -1.5q14 0 47 13q27 12 33 24q8 16 13 31q6 18 6 35q0 8 -6 26h-13q-11 11 -16 15q-8 8 -14 8q-11 -11 -23 -17q-8 0 -29 -6h-51l-14 9l-6 10q-1 -2 -9 -10q0 -1 -4 -5h-47q-14 -8 -14 -16zM748 360v15l8 -15h-8zM754 973l4 -6v12z M762 360v11l10 -2zM766 954q5 1 14 2t13 2l20 -6l66 2h10v11h-17l2 18l-59 2l-22 -12h-9l-2 10l-12 -4q-11 -5 -4 -25zM780 369v12h8l7 6l2 14l10 2l6 7l4 4h12v14l-6 10l6 6l11 -8v-8l6 6l4 4l2 19l4 6h8v-12l-6 2v-11l-2 -16l-18 -16l-15 -23l-14 -2l-2 -6l-12 -8z M887 1012l20 -13l19 2l-11 3l-4 8h-24zM985 844l14 6v-43l-4 18l-4 13z" />
<glyph unicode="&#x2000;" horiz-adv-x="820" />
<glyph unicode="&#x2001;" horiz-adv-x="1640" />
<glyph unicode="&#x2002;" horiz-adv-x="820" />
<glyph unicode="&#x2003;" horiz-adv-x="1640" />
<glyph unicode="&#x2004;" horiz-adv-x="546" />
<glyph unicode="&#x2005;" horiz-adv-x="410" />
<glyph unicode="&#x2006;" horiz-adv-x="273" />
<glyph unicode="&#x2007;" horiz-adv-x="273" />
<glyph unicode="&#x2008;" horiz-adv-x="205" />
<glyph unicode="&#x2009;" horiz-adv-x="328" />
<glyph unicode="&#x200a;" horiz-adv-x="91" />
<glyph unicode="&#x202f;" horiz-adv-x="328" />
<glyph unicode="&#x205f;" horiz-adv-x="410" />
<glyph unicode="&#xe000;" horiz-adv-x="1146" d="M0 0v1147h1147v-1147h-1147z" />
</font>
</defs>
</svg>
